<?xml version="1.0" encoding="UTF-8"?>
<svg width="40px" height="40px" viewBox="0 0 40 40" version="1.1" xmlns="http://www.w3.org/2000/svg" xmlns:xlink="http://www.w3.org/1999/xlink">
    <title>DFC05D3B-948E-4B48-8121-646260CE080A</title>
    <g id="Page-1" stroke="none" stroke-width="1" fill="none" fill-rule="evenodd">
        <g id="Academy---About-Us" transform="translate(-496.000000, -912.000000)" fill="#6292B0" fill-rule="nonzero">
            <g id="Our-values" transform="translate(480.000000, 832.000000)">
                <g id="Group-8" transform="translate(0.000000, 64.000000)">
                    <g id="Path" transform="translate(16.000000, 16.000000)">
                        <path d="M23.8971758,30.7900769 C24.2411636,30.2192308 24.4393939,29.555 24.4393939,28.8461538 C24.4393939,26.7253846 22.6721818,25 20.5,25 C18.3278182,25 16.5606061,26.7253846 16.5606061,28.8461538 C16.5606061,29.555 16.7588364,30.2192308 17.1028242,30.7900769 C15.2798303,31.5563846 14,33.3270769 14,35.3846154 L14,38.8461538 C14,39.4833846 14.5291394,40 15.1818182,40 L25.8181818,40 C26.4708606,40 27,39.4833846 27,38.8461538 L27,35.3846154 C27,33.3270769 25.7201697,31.5563846 23.8971758,30.7900769 Z"></path>
                        <path d="M9.91586747,17.7900769 C10.2577831,17.2192308 10.4548193,16.5550769 10.4548193,15.8461538 C10.4548193,13.7253846 8.69825301,12 6.53915663,12 C4.38006024,12 2.62349398,13.7253846 2.62349398,15.8461538 C2.62349398,16.5443077 2.81481325,17.199 3.14725301,17.7640769 C1.30172289,18.5156154 0,20.3033077 0,22.3846154 L0,25.8461538 C0,26.4833846 0.525951807,27 1.1746988,27 L11.8253012,27 C12.4740482,27 13,26.4833846 13,25.8461538 L13,22.3846154 C13,20.3270769 11.7278795,18.5563846 9.91586747,17.7900769 Z"></path>
                        <path d="M36.9158675,17.7900769 C37.2577831,17.2192308 37.4548193,16.5550769 37.4548193,15.8461538 C37.4548193,13.7253846 35.698253,12 33.5391566,12 C31.3800602,12 29.623494,13.7253846 29.623494,15.8461538 C29.623494,16.5443077 29.8148133,17.199 30.147253,17.7640769 C28.3017229,18.5156154 27,20.3033077 27,22.3846154 L27,25.8461538 C27,26.4833846 27.5259518,27 28.1746988,27 L38.8253012,27 C39.4740482,27 40,26.4833846 40,25.8461538 L40,22.3846154 C40,20.3270769 38.7278795,18.5563846 36.9158675,17.7900769 Z"></path>
                        <path d="M23.8971758,5.79007692 C24.2411636,5.21923077 24.4393939,4.555 24.4393939,3.84615385 C24.4393939,1.72538462 22.6721818,0 20.5,0 C18.3278182,0 16.5606061,1.72538462 16.5606061,3.84615385 C16.5606061,4.555 16.7588364,5.21923077 17.1028242,5.79007692 C15.2798303,6.55638462 14,8.32707692 14,10.3846154 L14,13.8461538 C14,14.4833846 14.5291394,15 15.1818182,15 L25.8181818,15 C26.4708606,15 27,14.4833846 27,13.8461538 L27,10.3846154 C27,8.32707692 25.7201697,6.55638462 23.8971758,5.79007692 Z"></path>
                        <path d="M32.6530107,30.1666667 C32.6530107,32.0965667 31.0737215,33.6666667 29.1325267,33.6666667 L29,33.6666667 C29.1147678,34.3819889 29.0934102,34.7739111 29.0934102,36 C32.460714,36 35,33.3064 35,30.1666667 L35,29 L32.6530107,29 L32.6530107,30.1666667 Z"></path>
                        <path d="M26.1541364,4.29458042 L28.8931712,4.29458042 C30.9135544,4.29458042 32.5572685,5.83860358 32.5572685,7.73645105 L32.5572685,9 C33.3568559,8.85192308 34.1710183,8.8430507 35,8.986309 L35,7.73645105 C35,4.57337194 32.2604766,2 28.8931712,2 L26,2 C26.1985941,2.72210446 26.2612094,3.49904939 26.1541364,4.29458042 Z"></path>
                        <path d="M7.45383161,9 L7.45383161,7.74203498 C7.45383161,5.84234013 9.1050149,4.29681399 11.134579,4.29681399 L13.8451632,4.29681399 C13.7439836,3.54751671 13.7878254,2.76889676 14,2 L11.134579,2 C7.75197215,2 5,4.57587689 5,7.74203498 L5,9 C5.81851643,8.85399919 6.63457903,8.85392263 7.45383161,9 Z"></path>
                        <path d="M7.36239074,30.1666667 L7.36239074,29 L5,29 L5,30.1666667 C5,33.3831667 7.64942121,36 10.9059768,36 C10.9059768,34.7729 10.8845578,34.3814444 11,33.6666667 L10.9059768,33.6666667 C8.95204347,33.6666667 7.36239074,32.0965667 7.36239074,30.1666667 Z"></path>
                    </g>
                </g>
            </g>
        </g>
    </g>
</svg>