<?xml version="1.0" encoding="UTF-8"?>
<svg width="40px" height="40px" viewBox="0 0 40 40" version="1.1" xmlns="http://www.w3.org/2000/svg" xmlns:xlink="http://www.w3.org/1999/xlink">
    <title>43BB1CC6-B46C-4128-B266-A1290165B492</title>
    <g id="Page-1" stroke="none" stroke-width="1" fill="none" fill-rule="evenodd">
        <g id="Academy---About-Us" transform="translate(-744.000000, -912.000000)" fill="#6292B0" fill-rule="nonzero">
            <g id="Our-values" transform="translate(480.000000, 832.000000)">
                <g id="Group-8" transform="translate(248.000000, 64.000000)">
                    <g id="icon/values/marketing" transform="translate(16.000000, 16.000000)">
                        <path d="M12.4137931,13.7931034 L12.4137931,14.4827586 C12.4137931,14.8634483 12.1048276,15.1724138 11.7241379,15.1724138 L11.0344828,15.1724138 L11.0344828,16.5517241 L11.7241379,16.5517241 C12.8648276,16.5517241 13.7931034,15.6234483 13.7931034,14.4827586 L13.7931034,13.9103448 C13.4910345,13.8413793 13.1848276,13.7931034 12.8737931,13.7931034 L12.4137931,13.7931034 Z" id="Path"></path>
                        <path d="M35.1724138,22.0689655 C35.1724138,21.6882759 34.8634483,21.3793103 34.4827586,21.3793103 L28.9655172,21.3793103 C28.5848276,21.3793103 28.2758621,21.6882759 28.2758621,22.0689655 L28.2758621,38.6206897 L24.137931,38.6206897 L24.137931,27.5862069 C24.137931,27.2055172 23.8289655,26.8965517 23.4482759,26.8965517 L17.9310345,26.8965517 C17.5503448,26.8965517 17.2413793,27.2055172 17.2413793,27.5862069 L17.2413793,38.6206897 L13.1034483,38.6206897 L13.1034483,33.1034483 C13.1034483,32.7227586 12.7944828,32.4137931 12.4137931,32.4137931 L6.89655172,32.4137931 C6.51586207,32.4137931 6.20689655,32.7227586 6.20689655,33.1034483 L6.20689655,38.6206897 L4.13793103,38.6206897 L4.13793103,40 L37.2413793,40 L37.2413793,38.6206897 L35.1724138,38.6206897 L35.1724138,22.0689655 Z" id="Path"></path>
                        <path d="M5.51724138,12.4137931 L5.51724138,4.13793103 L4.13793103,4.13793103 C1.85586207,4.13793103 0,5.9937931 0,8.27586207 C0,10.557931 1.85586207,12.4137931 4.13793103,12.4137931 L5.51724138,12.4137931 Z" id="Path"></path>
                        <path d="M16.1841379,13.517931 L16.5510345,13.7931034 L16.5517241,13.7931034 L16.5517241,2.75793103 L16.1834483,3.0337931 C15.2358621,3.7462069 14.0606897,4.13793103 12.8737931,4.13793103 L6.89655172,4.13793103 L6.89655172,12.4137931 L12.8737931,12.4137931 C14.0606897,12.4137931 15.2358621,12.8055172 16.1841379,13.517931 L16.1841379,13.517931 Z" id="Path"></path>
                        <path d="M23.4482759,8.96551724 L23.4482759,6.20689655 C23.4482759,5.8262069 23.1393103,5.51724138 22.7586207,5.51724138 L22.0689655,5.51724138 L22.0689655,9.65517241 L22.7586207,9.65517241 C23.1393103,9.65517241 23.4482759,9.3462069 23.4482759,8.96551724 Z" id="Path"></path>
                        <path d="M19.3103448,16.5517241 C20.0710345,16.5517241 20.6896552,15.9331034 20.6896552,15.1724138 L20.6896552,1.37931034 C20.6896552,0.61862069 20.0710345,0 19.3103448,0 C18.5496552,0 17.9310345,0.61862069 17.9310345,1.37931034 L17.9310345,15.1724138 C17.9310345,15.9331034 18.5496552,16.5517241 19.3103448,16.5517241 Z" id="Path"></path>
                        <path d="M9.65517241,23.4482759 L9.65517241,13.7931034 L5.51655172,13.7931034 L6.62,15.2648276 C6.79793103,15.5013793 6.89586207,15.7958621 6.89586207,16.0917241 L6.89586207,23.4482759 L9.65517241,23.4482759 Z" id="Path"></path>
                        <path d="M37.9310345,1.37931034 L22.0689655,1.37931034 L22.0689655,4.13793103 L22.7586207,4.13793103 C23.8993103,4.13793103 24.8275862,5.0662069 24.8275862,6.20689655 L24.8275862,8.96551724 C24.8275862,10.1062069 23.8993103,11.0344828 22.7586207,11.0344828 L22.0689655,11.0344828 L22.0689655,15.1724138 C22.0689655,16.6937931 20.8317241,17.9310345 19.3103448,17.9310345 C17.9165517,17.9310345 16.7737931,16.8889655 16.5896552,15.5455172 L16.5517241,15.5172414 L16.5517241,17.2413793 C16.5517241,18.382069 17.48,19.3103448 18.6206897,19.3103448 L19.7365517,19.3103448 L22.3324138,24.5013793 C22.4324138,24.7027586 22.6344828,24.8275862 22.8593103,24.8275862 C23.1834483,24.8275862 23.4482759,24.5627586 23.4482759,24.2386207 L23.4482759,19.3103448 L37.9310345,19.3103448 C39.0717241,19.3103448 40,18.382069 40,17.2413793 L40,3.44827586 C40,2.30758621 39.0717241,1.37931034 37.9310345,1.37931034 Z M29.6551724,16.5517241 C29.6551724,16.9324138 29.3462069,17.2413793 28.9655172,17.2413793 L27.5862069,17.2413793 C27.2055172,17.2413793 26.8965517,16.9324138 26.8965517,16.5517241 L26.8965517,15.1724138 C26.8965517,14.7917241 27.2055172,14.4827586 27.5862069,14.4827586 L28.9655172,14.4827586 C29.3462069,14.4827586 29.6551724,14.7917241 29.6551724,15.1724138 L29.6551724,16.5517241 Z M29.6551724,11.0344828 C29.6551724,11.4151724 29.3462069,11.7241379 28.9655172,11.7241379 L27.5862069,11.7241379 C27.2055172,11.7241379 26.8965517,11.4151724 26.8965517,11.0344828 L26.8965517,9.65517241 C26.8965517,9.27448276 27.2055172,8.96551724 27.5862069,8.96551724 L28.9655172,8.96551724 C29.3462069,8.96551724 29.6551724,9.27448276 29.6551724,9.65517241 L29.6551724,11.0344828 Z M29.6551724,5.51724138 C29.6551724,5.89793103 29.3462069,6.20689655 28.9655172,6.20689655 L27.5862069,6.20689655 C27.2055172,6.20689655 26.8965517,5.89793103 26.8965517,5.51724138 L26.8965517,4.13793103 C26.8965517,3.75724138 27.2055172,3.44827586 27.5862069,3.44827586 L28.9655172,3.44827586 C29.3462069,3.44827586 29.6551724,3.75724138 29.6551724,4.13793103 L29.6551724,5.51724138 Z M38.6206897,16.5517241 L31.7241379,16.5517241 L31.7241379,15.1724138 L38.6206897,15.1724138 L38.6206897,16.5517241 Z M38.6206897,11.0344828 L31.7241379,11.0344828 L31.7241379,9.65517241 L38.6206897,9.65517241 L38.6206897,11.0344828 Z M38.6206897,5.51724138 L31.7241379,5.51724138 L31.7241379,4.13793103 L38.6206897,4.13793103 L38.6206897,5.51724138 Z" id="Shape"></path>
                    </g>
                </g>
            </g>
        </g>
    </g>
</svg>