<?xml version="1.0" encoding="UTF-8"?>
<svg width="40px" height="40px" viewBox="0 0 40 40" version="1.1" xmlns="http://www.w3.org/2000/svg" xmlns:xlink="http://www.w3.org/1999/xlink">
    <title>8115F07B-A785-4771-B885-A190DE0A679F</title>
    <g id="Page-1" stroke="none" stroke-width="1" fill="none" fill-rule="evenodd">
        <g id="Academy---About-Us" transform="translate(-992.000000, -912.000000)" fill="#6292B0" fill-rule="nonzero">
            <g id="Our-values" transform="translate(480.000000, 832.000000)">
                <g id="Group-8" transform="translate(496.000000, 64.000000)">
                    <g id="icon/values/progressing" transform="translate(16.000000, 16.000000)">
                        <path d="M12.9550218,27.033327 C11.5617176,25.6555577 9.29504731,25.6555577 7.90174306,27.033327 C6.93777694,27.9864667 3.00687555,34.5395672 0,40 C5.52112788,37.0273568 11.9910557,32.9834816 12.9550218,32.0302634 C14.3483261,30.652494 14.3483261,28.4110964 12.9550218,27.033327 Z" id="Path"></path>
                        <path d="M29.2686786,10.7313214 C28.2936667,9.75622619 26.7062499,9.75622619 25.7313214,10.7313214 C24.7562262,11.7062499 24.7562262,13.2936667 25.7313214,14.2686786 C26.7062499,15.2437738 28.2936667,15.2437738 29.2686786,14.2686786 C30.2437738,13.2937501 30.2437738,11.7063333 29.2686786,10.7313214 Z" id="Path"></path>
                        <path d="M12.576649,17 C11.4024548,19.619522 11.1550478,21.4705125 11,21.857922 L18.1724444,29 C18.3233079,28.9404568 20.2757842,28.6014545 23,27.3790008 L12.576649,17 Z" id="Path"></path>
                        <path d="M40,0 C38.4410454,0.311034048 28.977938,-1.6601048 19.2002763,7.79777668 C16.7635943,10.154727 15.1413911,12.4097431 14,14.4071925 L25.5666599,26 C27.6419654,24.8311028 29.9529946,23.2004628 32.2198112,20.8467436 C41.6362498,11.0688271 39.6944265,1.5387069 40,0 Z M22.2550904,19.4170486 L20.6266699,17.7849469 L22.2550904,16.152999 L23.8833574,17.7849469 L22.2550904,19.4170486 Z M31.2105206,15.3370635 C29.4120811,17.1397224 26.4959687,17.1397224 24.6975293,15.3370635 C22.8989363,13.5345585 22.8989363,10.611854 24.6975293,8.80934895 C26.4959687,7.00669008 29.4120811,7.00669008 31.2105206,8.80934895 C33.0091135,10.611854 33.0091135,13.5345585 31.2105206,15.3370635 Z M33.6529595,7.99325962 L32.0246925,6.36131174 L33.6529595,4.72921 L35.28138,6.36131174 L33.6529595,7.99325962 Z" id="Shape"></path>
                        <path d="M17.1780681,31.7916131 L16.3216255,30.9777642 L15,36 L24.3233631,31.5709608 L25,29 C21.4365444,30.7468678 20.0387459,30.787107 17.1780681,31.7916131 Z" id="Path"></path>
                        <path d="M11,15 L8.5000107,15.649583 L4,25 L9.10271276,23.6745395 L8.25964871,22.7986526 C9.48227504,19.4447816 9.2127102,18.6126151 11,15 Z" id="Path"></path>
                    </g>
                </g>
            </g>
        </g>
    </g>
</svg>