<?xml version="1.0" encoding="UTF-8"?>
<svg width="40px" height="40px" viewBox="0 0 40 40" version="1.1" xmlns="http://www.w3.org/2000/svg" xmlns:xlink="http://www.w3.org/1999/xlink">
    <title>1BF33C11-9B0E-43B5-930A-C47DAF8CAED7</title>
    <defs>
        <linearGradient x1="83.2094151%" y1="44.5444912%" x2="-11.8599696%" y2="81.4090259%" id="linearGradient-1">
            <stop stop-color="#FFFFFF" stop-opacity="0" offset="0%"></stop>
            <stop stop-color="#FFD230" offset="49.9673863%"></stop>
            <stop stop-color="#FFFFFF" stop-opacity="0" offset="100%"></stop>
        </linearGradient>
        <linearGradient x1="88.2064453%" y1="24.8392319%" x2="-11.8599696%" y2="81.4090259%" id="linearGradient-2">
            <stop stop-color="#FFFFFF" stop-opacity="0" offset="0%"></stop>
            <stop stop-color="#FFD230" offset="33.3319143%"></stop>
            <stop stop-color="#FFFFFF" stop-opacity="0" offset="100%"></stop>
        </linearGradient>
        <linearGradient x1="116.340876%" y1="-3.35734182%" x2="-11.8599696%" y2="81.4090259%" id="linearGradient-3">
            <stop stop-color="#FFFFFF" stop-opacity="0" offset="0%"></stop>
            <stop stop-color="#FFD230" offset="65.1725716%"></stop>
            <stop stop-color="#FFFFFF" stop-opacity="0" offset="100%"></stop>
        </linearGradient>
        <rect id="path-4" x="0" y="0" width="304" height="256" rx="8"></rect>
        <filter x="-6.6%" y="-7.8%" width="114.5%" height="117.2%" filterUnits="objectBoundingBox" id="filter-5">
            <feOffset dx="2" dy="2" in="SourceAlpha" result="shadowOffsetOuter1"></feOffset>
            <feGaussianBlur stdDeviation="7" in="shadowOffsetOuter1" result="shadowBlurOuter1"></feGaussianBlur>
            <feColorMatrix values="0 0 0 0 0   0 0 0 0 0   0 0 0 0 0  0 0 0 0.0682142564 0" type="matrix" in="shadowBlurOuter1"></feColorMatrix>
        </filter>
    </defs>
    <g id="Page-1" stroke="none" stroke-width="1" fill="none" fill-rule="evenodd">
        <g id="Academy---For-Learners" transform="translate(-824.000000, -944.000000)">
            <rect fill="#FFFFFF" x="0" y="0" width="1920" height="3168"></rect>
            <g id="Group-7" transform="translate(-1.000000, -289.000000)" fill-rule="nonzero" opacity="0.396077474">
                <g id="image/lines-left" transform="translate(0.589202, 0.932690)">
                    <g transform="translate(610.636628, 663.000000) rotate(6.000000) translate(-610.636628, -663.000000) translate(65.701409, 54.277929)" id="Path-2">
                        <path d="M921.160831,343.946803 C932.931125,507.107705 865.370958,588.903615 718.676907,588.903615 C573.004765,588.903615 500.364516,646.449489 500.363666,761.765671 C495.124183,873.088567 440.669685,930.544666 337.187701,933.83355 L334.036877,933.916633 C230.508642,936.091365 175.707376,982.718626 169.354316,1074.01177 L169.176628,1076.7919 L167.3984,1076.7024 C172.823371,983.638289 227.399123,935.447234 330.846888,932.342595 L333.996628,932.262316 C438.532858,930.066409 493.33107,873.3133 498.583682,761.729522 C498.583682,645.471852 572.078639,587.248875 718.676907,587.248875 C862.797502,587.248875 929.745488,507.939025 919.711604,348.901206 L919.383984,344.057474 L921.160831,343.946803 Z" fill="url(#linearGradient-1)" transform="translate(544.934542, 710.369353) rotate(42.000000) translate(-544.934542, -710.369353) "></path>
                        <path d="M921.160831,322.892833 C932.931125,486.053735 865.370958,567.849645 718.676907,567.849645 C573.004765,567.849645 500.364516,625.395519 500.363666,740.711701 C495.124183,852.034597 440.669685,909.490696 337.187701,912.77958 L334.036877,912.862662 C230.508642,915.037395 175.707376,961.664656 169.354316,1052.9578 L169.176628,1055.73793 L167.3984,1055.64843 C172.823371,962.584319 227.399123,914.393264 330.846888,911.288625 L333.996628,911.208345 C438.532858,909.012439 493.33107,852.25933 498.583682,740.675552 C498.583682,624.417882 572.078639,566.194905 718.676907,566.194905 C862.797502,566.194905 929.745488,486.885055 919.711604,327.847236 L919.383984,323.003504 L921.160831,322.892833 Z" fill="url(#linearGradient-2)" transform="translate(544.934542, 689.315383) rotate(42.000000) translate(-544.934542, -689.315383) "></path>
                        <path d="M921.160831,303.035956 C932.931125,466.196859 865.370958,547.992768 718.676907,547.992768 C573.004765,547.992768 500.364516,605.538642 500.363666,720.854824 C495.124183,832.177721 440.669685,889.63382 337.187701,892.922703 L334.036877,893.005786 C230.508642,895.180518 175.707376,941.80778 169.354316,1033.10093 L169.176628,1035.88106 L167.3984,1035.79156 C172.823371,942.727442 227.399123,894.536387 330.846888,891.431748 L333.996628,891.351469 C438.532858,889.155563 493.33107,832.402453 498.583682,720.818675 C498.583682,604.561006 572.078639,546.338029 718.676907,546.338029 C862.797502,546.338029 929.745488,467.028178 919.711604,307.99036 L919.383984,303.146627 L921.160831,303.035956 Z" fill="url(#linearGradient-3)" transform="translate(544.934542, 669.458507) rotate(42.000000) translate(-544.934542, -669.458507) "></path>
                    </g>
                </g>
            </g>
            <g id="descript" transform="translate(0.000000, 672.000000)">
                <g id="Group-12" fill="#F0F4F6">
                    <rect id="Rectangle" x="0" y="0" width="1920" height="640"></rect>
                </g>
                <g id="Group-8" transform="translate(808.000000, 256.000000)">
                    <g id="Rectangle">
                        <use fill="black" fill-opacity="1" filter="url(#filter-5)" xlink:href="#path-4"></use>
                        <use fill="#FFD230" fill-rule="evenodd" xlink:href="#path-4"></use>
                    </g>
                    <g id="icon/learners/business" transform="translate(16.000000, 16.000000)">
                        <rect id="Rectangle" x="0" y="0" width="40" height="40"></rect>
                        <g id="001-conversation" transform="translate(3.000000, 5.000000)" fill="#080A13" fill-rule="nonzero">
                            <polygon id="Path" points="29.9492188 23.90625 10.2685977 23.90625 6.28422266 27.890625 24.5563008 27.890625 29.9492188 33.3359375 29.9492188 27.890625 34 27.890625 34 5.9765625 29.9492188 5.9765625"></polygon>
                            <path d="M11.0234375,10.9570312 C11.0234375,9.66011719 10.1881797,8.5648125 9.03125,8.15223047 L9.03125,10.544582 L10.7239453,12.2372773 C10.9103477,11.8476719 11.0234375,11.4170273 11.0234375,10.9570313 L11.0234375,10.9570312 Z" id="Path"></path>
                            <path d="M8.03515625,13.9453125 C8.49515234,13.9453125 8.92579687,13.8322227 9.31540234,13.6458203 L7.0390625,11.3694805 L7.0390625,8.15223047 C5.88213281,8.5648125 5.046875,9.66011719 5.046875,10.9570312 C5.046875,12.6048359 6.38735156,13.9453125 8.03515625,13.9453125 Z" id="Path"></path>
                            <path d="M9.44369922,21.9140625 L27.9570312,21.9140625 L27.9570312,0 L0,0 L0,21.9140625 L4.05078125,21.9140625 L4.05078125,27.3069805 L9.44369922,21.9140625 Z M22.9765625,5.9765625 L24.96875,5.9765625 L24.96875,15.9375 L22.9765625,15.9375 L22.9765625,5.9765625 Z M18.9921875,7.96875 L20.984375,7.96875 L20.984375,15.9375 L18.9921875,15.9375 L18.9921875,7.96875 Z M15.0078125,11.953125 L17,11.953125 L17,15.9375 L15.0078125,15.9375 L15.0078125,11.953125 Z M3.0546875,10.9570312 C3.0546875,8.21093359 5.28905859,5.9765625 8.03515625,5.9765625 C10.7812539,5.9765625 13.015625,8.21093359 13.015625,10.9570312 C13.015625,13.7031289 10.7812539,15.9375 8.03515625,15.9375 C5.28905859,15.9375 3.0546875,13.7031289 3.0546875,10.9570312 Z" id="Shape"></path>
                        </g>
                    </g>
                </g>
            </g>
        </g>
    </g>
</svg>