<?xml version="1.0" encoding="UTF-8"?>
<svg width="40px" height="40px" viewBox="0 0 40 40" version="1.1" xmlns="http://www.w3.org/2000/svg" xmlns:xlink="http://www.w3.org/1999/xlink">
    <title>4E260DE7-9777-4180-939A-F360405159E9</title>
    <defs>
        <linearGradient x1="83.2094151%" y1="44.5444912%" x2="-11.8599696%" y2="81.4090259%" id="linearGradient-1">
            <stop stop-color="#FFFFFF" stop-opacity="0" offset="0%"></stop>
            <stop stop-color="#FFD230" offset="49.9673863%"></stop>
            <stop stop-color="#FFFFFF" stop-opacity="0" offset="100%"></stop>
        </linearGradient>
        <linearGradient x1="88.2064453%" y1="24.8392319%" x2="-11.8599696%" y2="81.4090259%" id="linearGradient-2">
            <stop stop-color="#FFFFFF" stop-opacity="0" offset="0%"></stop>
            <stop stop-color="#FFD230" offset="33.3319143%"></stop>
            <stop stop-color="#FFFFFF" stop-opacity="0" offset="100%"></stop>
        </linearGradient>
        <linearGradient x1="116.340876%" y1="-3.35734182%" x2="-11.8599696%" y2="81.4090259%" id="linearGradient-3">
            <stop stop-color="#FFFFFF" stop-opacity="0" offset="0%"></stop>
            <stop stop-color="#FFD230" offset="65.1725716%"></stop>
            <stop stop-color="#FFFFFF" stop-opacity="0" offset="100%"></stop>
        </linearGradient>
        <rect id="path-4" x="-2.84217094e-14" y="0" width="304" height="256" rx="8"></rect>
        <filter x="-6.6%" y="-7.8%" width="114.5%" height="117.2%" filterUnits="objectBoundingBox" id="filter-5">
            <feOffset dx="2" dy="2" in="SourceAlpha" result="shadowOffsetOuter1"></feOffset>
            <feGaussianBlur stdDeviation="7" in="shadowOffsetOuter1" result="shadowBlurOuter1"></feGaussianBlur>
            <feColorMatrix values="0 0 0 0 0   0 0 0 0 0   0 0 0 0 0  0 0 0 0.0682142564 0" type="matrix" in="shadowBlurOuter1"></feColorMatrix>
        </filter>
    </defs>
    <g id="Page-1" stroke="none" stroke-width="1" fill="none" fill-rule="evenodd">
        <g id="Academy---For-Learners" transform="translate(-496.000000, -944.000000)">
            <rect fill="#FFFFFF" x="0" y="0" width="1920" height="3168"></rect>
            <g id="Group-7" transform="translate(-1.000000, -289.000000)" fill-rule="nonzero" opacity="0.396077474">
                <g id="image/lines-left" transform="translate(0.589202, 0.932690)">
                    <g transform="translate(610.636628, 663.000000) rotate(6.000000) translate(-610.636628, -663.000000) translate(65.701409, 54.277929)" id="Path-2">
                        <path d="M921.160831,343.946803 C932.931125,507.107705 865.370958,588.903615 718.676907,588.903615 C573.004765,588.903615 500.364516,646.449489 500.363666,761.765671 C495.124183,873.088567 440.669685,930.544666 337.187701,933.83355 L334.036877,933.916633 C230.508642,936.091365 175.707376,982.718626 169.354316,1074.01177 L169.176628,1076.7919 L167.3984,1076.7024 C172.823371,983.638289 227.399123,935.447234 330.846888,932.342595 L333.996628,932.262316 C438.532858,930.066409 493.33107,873.3133 498.583682,761.729522 C498.583682,645.471852 572.078639,587.248875 718.676907,587.248875 C862.797502,587.248875 929.745488,507.939025 919.711604,348.901206 L919.383984,344.057474 L921.160831,343.946803 Z" fill="url(#linearGradient-1)" transform="translate(544.934542, 710.369353) rotate(42.000000) translate(-544.934542, -710.369353) "></path>
                        <path d="M921.160831,322.892833 C932.931125,486.053735 865.370958,567.849645 718.676907,567.849645 C573.004765,567.849645 500.364516,625.395519 500.363666,740.711701 C495.124183,852.034597 440.669685,909.490696 337.187701,912.77958 L334.036877,912.862662 C230.508642,915.037395 175.707376,961.664656 169.354316,1052.9578 L169.176628,1055.73793 L167.3984,1055.64843 C172.823371,962.584319 227.399123,914.393264 330.846888,911.288625 L333.996628,911.208345 C438.532858,909.012439 493.33107,852.25933 498.583682,740.675552 C498.583682,624.417882 572.078639,566.194905 718.676907,566.194905 C862.797502,566.194905 929.745488,486.885055 919.711604,327.847236 L919.383984,323.003504 L921.160831,322.892833 Z" fill="url(#linearGradient-2)" transform="translate(544.934542, 689.315383) rotate(42.000000) translate(-544.934542, -689.315383) "></path>
                        <path d="M921.160831,303.035956 C932.931125,466.196859 865.370958,547.992768 718.676907,547.992768 C573.004765,547.992768 500.364516,605.538642 500.363666,720.854824 C495.124183,832.177721 440.669685,889.63382 337.187701,892.922703 L334.036877,893.005786 C230.508642,895.180518 175.707376,941.80778 169.354316,1033.10093 L169.176628,1035.88106 L167.3984,1035.79156 C172.823371,942.727442 227.399123,894.536387 330.846888,891.431748 L333.996628,891.351469 C438.532858,889.155563 493.33107,832.402453 498.583682,720.818675 C498.583682,604.561006 572.078639,546.338029 718.676907,546.338029 C862.797502,546.338029 929.745488,467.028178 919.711604,307.99036 L919.383984,303.146627 L921.160831,303.035956 Z" fill="url(#linearGradient-3)" transform="translate(544.934542, 669.458507) rotate(42.000000) translate(-544.934542, -669.458507) "></path>
                    </g>
                </g>
            </g>
            <g id="descript" transform="translate(0.000000, 672.000000)">
                <g id="Group-12" fill="#F0F4F6">
                    <rect id="Rectangle" x="0" y="0" width="1920" height="640"></rect>
                </g>
                <g id="Group-8" transform="translate(480.000000, 256.000000)">
                    <g id="Rectangle">
                        <use fill="black" fill-opacity="1" filter="url(#filter-5)" xlink:href="#path-4"></use>
                        <use fill="#FFFFFF" fill-rule="evenodd" xlink:href="#path-4"></use>
                    </g>
                    <g id="icon/learners/design" transform="translate(16.000000, 16.000000)">
                        <rect id="Rectangle" x="0" y="0" width="40" height="40"></rect>
                        <g id="001-web-design" transform="translate(3.000000, 6.000000)" fill="#FFD230" fill-rule="nonzero">
                            <polygon id="Path" points="14.5714286 23.6785714 19.4285714 23.6785714 19.4285714 24.8928571 14.5714286 24.8928571"></polygon>
                            <path d="M19.6603786,22.4642857 L20.5710929,20.6428571 L17.6071429,14.7148964 L17.6071429,17.7190393 C18.4435105,18.0147399 18.9452081,18.8699795 18.7951974,19.7443058 C18.6451867,20.6186321 17.8871018,21.2577272 17,21.2577272 C16.1128982,21.2577272 15.3548133,20.6186321 15.2048026,19.7443058 C15.0547919,18.8699795 15.5564895,18.0147399 16.3928571,17.7190393 L16.3928571,14.7148964 L13.4289071,20.6428571 L14.3396214,22.4642857 L19.6603786,22.4642857 Z" id="Path"></path>
                            <circle id="Oval" cx="17" cy="19.4285714" r="1"></circle>
                            <path d="M34,4.85714286 L34,0.607142857 C34,0.271827116 33.7281729,0 33.3928571,0 L0.607142857,0 C0.271827116,0 0,0.271827116 0,0.607142857 L0,4.85714286 L34,4.85714286 Z M17.6071429,1.82142857 L30.9642857,1.82142857 C31.2996015,1.82142857 31.5714286,2.09325569 31.5714286,2.42857143 C31.5714286,2.76388717 31.2996015,3.03571429 30.9642857,3.03571429 L17.6071429,3.03571429 C17.2718271,3.03571429 17,2.76388717 17,2.42857143 C17,2.09325569 17.2718271,1.82142857 17.6071429,1.82142857 Z M7.89285714,1.82142857 C8.22817288,1.82142857 8.5,2.09325569 8.5,2.42857143 C8.5,2.76388717 8.22817288,3.03571429 7.89285714,3.03571429 C7.5575414,3.03571429 7.28571429,2.76388717 7.28571429,2.42857143 C7.28571429,2.09325569 7.5575414,1.82142857 7.89285714,1.82142857 Z M5.46428571,1.82142857 C5.79960146,1.82142857 6.07142857,2.09325569 6.07142857,2.42857143 C6.07142857,2.76388717 5.79960146,3.03571429 5.46428571,3.03571429 C5.12896997,3.03571429 4.85714286,2.76388717 4.85714286,2.42857143 C4.85714286,2.09325569 5.12896997,1.82142857 5.46428571,1.82142857 Z M3.03571429,1.82142857 C3.37103003,1.82142857 3.64285714,2.09325569 3.64285714,2.42857143 C3.64285714,2.76388717 3.37103003,3.03571429 3.03571429,3.03571429 C2.70039854,3.03571429 2.42857143,2.76388717 2.42857143,2.42857143 C2.42857143,2.09325569 2.70039854,1.82142857 3.03571429,1.82142857 Z" id="Shape"></path>
                            <circle id="Oval" cx="26.7142857" cy="18.2142857" r="1"></circle>
                            <circle id="Oval" cx="7.28571429" cy="18.2142857" r="1"></circle>
                            <circle id="Oval" cx="27.3214286" cy="9.71428571" r="1"></circle>
                            <path d="M0,6.07142857 L0,27.3214286 C0,27.6567443 0.271827116,27.9285714 0.607142857,27.9285714 L33.3928571,27.9285714 C33.7281729,27.9285714 34,27.6567443 34,27.3214286 L34,6.07142857 L0,6.07142857 Z M21.7930893,20.9144321 L20.6428571,23.2145929 L20.6428571,25.5 C20.6428571,25.8353157 20.37103,26.1071429 20.0357143,26.1071429 L13.9642857,26.1071429 C13.62897,26.1071429 13.3571429,25.8353157 13.3571429,25.5 L13.3571429,23.2145929 L12.2069107,20.9144321 C12.1214884,20.743458 12.1214884,20.5422562 12.2069107,20.3712821 L15.8497679,13.0855679 C15.9526348,12.8798837 16.1628841,12.75 16.3928571,12.75 L17.6071429,12.75 C17.8371159,12.75 18.0473652,12.8798837 18.1502321,13.0855679 L21.7930893,20.3712821 C21.8785116,20.5422562 21.8785116,20.743458 21.7930893,20.9144321 L21.7930893,20.9144321 Z M27.3214286,11.5357143 C26.5520858,11.5333525 25.8674853,11.0470787 25.6118964,10.3214286 L22.49355,10.3214286 C25.2317643,11.6400214 27.0755357,13.9113429 27.2907679,16.4951607 C28.1294789,16.7776359 28.6428424,17.6231149 28.5066023,18.4975674 C28.3703623,19.3720199 27.6241221,20.0212521 26.7392298,20.0351891 C25.8543376,20.0491262 25.0880218,19.4237167 24.9243109,18.5539885 C24.7606,17.6842603 25.2470829,16.8230337 26.0764821,16.5142857 C25.7771607,13.4997607 22.7246893,10.9929893 18.666425,10.4443143 C18.3775232,11.1071581 17.723219,11.53573 17.0001518,11.53573 C16.2770846,11.53573 15.6227804,11.1071581 15.3338786,10.4443143 C11.2756143,10.9929893 8.22314286,13.4997607 7.92376071,16.5142857 C8.75744974,16.8232662 9.24717131,17.6880469 9.08332984,18.5619246 C8.91948838,19.4358023 8.14976662,20.0644527 7.26077264,20.050451 C6.37177867,20.0364493 5.62223627,19.3838706 5.48599639,18.5052666 C5.34975651,17.6266626 5.86646902,16.7777333 6.709475,16.4951607 C6.92446429,13.9112821 8.76823571,11.6400214 11.50645,10.3214286 L8.38810357,10.3214286 C8.09240296,11.1577962 7.23716336,11.6594938 6.36283707,11.5094831 C5.48851078,11.3594724 4.84941567,10.6013875 4.84941567,9.71428571 C4.84941567,8.82718388 5.48851078,8.06909901 6.36283707,7.91908834 C7.23716336,7.76907766 8.09240296,8.27077523 8.38810357,9.10714286 L15.2904679,9.10714286 C15.5440516,8.37997646 16.2298859,7.89268634 17,7.89268634 C17.7701141,7.89268634 18.4559484,8.37997646 18.7095321,9.10714286 L25.6118964,9.10714286 C25.9222363,8.23631824 26.8366246,7.73699667 27.7370011,7.94668339 C28.6373776,8.15637011 29.237075,9.00830381 29.1307413,9.92663898 C29.0244076,10.8449741 28.245898,11.5373258 27.3214286,11.5357143 L27.3214286,11.5357143 Z" id="Shape"></path>
                            <circle id="Oval" cx="6.67857143" cy="9.71428571" r="1"></circle>
                            <circle id="Oval" cx="17" cy="9.71428571" r="1"></circle>
                        </g>
                    </g>
                </g>
            </g>
        </g>
    </g>
</svg>