<?xml version="1.0" encoding="UTF-8"?>
<svg width="40px" height="40px" viewBox="0 0 40 40" version="1.1" xmlns="http://www.w3.org/2000/svg" xmlns:xlink="http://www.w3.org/1999/xlink">
    <title>C9E57A22-9206-499F-BCB7-46E077B07C9A</title>
    <defs>
        <linearGradient x1="86.1471531%" y1="6.75003185%" x2="39.1611757%" y2="61.5516776%" id="linearGradient-1">
            <stop stop-color="#FFFFFF" stop-opacity="0" offset="0%"></stop>
            <stop stop-color="#FFD230" offset="40.1424804%"></stop>
            <stop stop-color="#FFFFFF" stop-opacity="0" offset="100%"></stop>
        </linearGradient>
        <linearGradient x1="86.1471531%" y1="6.75003185%" x2="34.8060153%" y2="58.6871231%" id="linearGradient-2">
            <stop stop-color="#FFFFFF" stop-opacity="0" offset="0%"></stop>
            <stop stop-color="#FFD230" offset="32.4067829%"></stop>
            <stop stop-color="#FFFFFF" stop-opacity="0" offset="100%"></stop>
        </linearGradient>
        <rect id="path-3" x="0" y="0" width="304" height="256" rx="8"></rect>
        <filter x="-6.6%" y="-7.8%" width="114.5%" height="117.2%" filterUnits="objectBoundingBox" id="filter-4">
            <feOffset dx="2" dy="2" in="SourceAlpha" result="shadowOffsetOuter1"></feOffset>
            <feGaussianBlur stdDeviation="7" in="shadowOffsetOuter1" result="shadowBlurOuter1"></feGaussianBlur>
            <feColorMatrix values="0 0 0 0 0   0 0 0 0 0   0 0 0 0 0  0 0 0 0.0682142564 0" type="matrix" in="shadowBlurOuter1"></feColorMatrix>
        </filter>
    </defs>
    <g id="Page-1" stroke="none" stroke-width="1" fill="none" fill-rule="evenodd">
        <g id="Academy---For-Learners" transform="translate(-1152.000000, -944.000000)">
            <rect fill="#FFFFFF" x="0" y="0" width="1920" height="3168"></rect>
            <g id="Group-7" transform="translate(-1.000000, -289.000000)">
                <g id="image/lines-right" transform="translate(1002.224087, 126.161369)" fill-rule="nonzero" opacity="0.424012684">
                    <g transform="translate(462.144421, 598.500000) rotate(5.000000) translate(-462.144421, -598.500000) translate(48.090580, 38.577348)" id="Path-2">
                        <path d="M699.918389,315.582803 C708.861719,465.811303 657.528009,541.123934 546.066622,541.123934 C435.381703,541.123934 380.188035,594.108628 380.187389,700.284659 C376.206314,802.783919 334.830581,855.685953 256.202679,858.714155 L253.808613,858.790652 C175.145568,860.793011 133.506354,903.724519 128.679158,987.78162 L128.544147,990.341394 L127.19301,990.258989 C131.315023,904.571288 172.782887,860.199935 251.384789,857.341375 L253.778031,857.267459 C333.206973,855.245604 374.843867,802.990839 378.834918,700.251375 C378.834918,593.20848 434.678013,539.600352 546.066622,539.600352 C655.57264,539.600352 706.441202,466.576731 698.817235,320.144512 L698.568301,315.684702 L699.918389,315.582803 Z" fill="url(#linearGradient-1)" opacity="0.0963657924" transform="translate(414.053327, 652.962098) rotate(42.000000) translate(-414.053327, -652.962098) "></path>
                        <path d="M699.918389,297.299815 C708.861719,447.528316 657.528009,522.840947 546.066622,522.840947 C435.381703,522.840947 380.188035,575.82564 380.187389,682.001671 C376.206314,784.500932 334.830581,837.402966 256.202679,840.431167 L253.808613,840.507664 C175.145568,842.510024 133.506354,885.441532 128.679158,969.498633 L128.544147,972.058406 L127.19301,971.976001 C131.315023,886.2883 172.782887,841.916948 251.384789,839.058387 L253.778031,838.984471 C333.206973,836.962616 374.843867,784.707852 378.834918,681.968388 C378.834918,574.925493 434.678013,521.317364 546.066622,521.317364 C655.57264,521.317364 706.441202,448.293744 698.817235,301.861524 L698.568301,297.401714 L699.918389,297.299815 Z" fill="url(#linearGradient-2)" opacity="0.456208729" transform="translate(414.053327, 634.679110) rotate(42.000000) translate(-414.053327, -634.679110) "></path>
                    </g>
                </g>
                <g id="image/lines-left" transform="translate(0.589202, 0.932690)" opacity="0.396077474">
                    <g transform="translate(610.636628, 663.000000) rotate(6.000000) translate(-610.636628, -663.000000) translate(65.701409, 54.277929)"></g>
                </g>
            </g>
            <g id="descript" transform="translate(0.000000, 672.000000)">
                <g id="Group-12" fill="#F0F4F6">
                    <rect id="Rectangle" x="0" y="0" width="1920" height="640"></rect>
                </g>
                <g id="Group-8" transform="translate(1136.000000, 256.000000)">
                    <g id="Rectangle">
                        <use fill="black" fill-opacity="1" filter="url(#filter-4)" xlink:href="#path-3"></use>
                        <use fill="#FFFFFF" fill-rule="evenodd" xlink:href="#path-3"></use>
                    </g>
                    <g id="Group-2" transform="translate(16.000000, 16.000000)">
                        <rect id="Rectangle" x="0" y="0" width="40" height="40"></rect>
                        <g id="001-businessman" transform="translate(8.000000, 6.000000)" fill="#FFD230" fill-rule="nonzero">
                            <polygon id="Path" points="13.0643519 19.212963 13.4513889 18.5747685 12.5 17.0946759 11.5486111 18.5747685 11.9356481 19.212963"></polygon>
                            <path d="M17.3726852,8.25740741 C16.6472222,7.73287037 15.6222222,6.81736111 15.1043981,5.55833333 C13.4145833,6.96041667 11.0027778,8.35115741 7.86342593,8.71018519 C8.275,12.0145833 9.84837963,15.2777778 12.5,15.2777778 C14.5016204,15.2777778 16.1444444,13.330787 16.8944444,10.0696759 L17.3726852,8.25740741 Z" id="Path"></path>
                            <path d="M17.6083333,2.13425926 C17.60625,2.13148148 17.6034722,2.12916667 17.6013889,2.12615741 C16.2333333,0.0509259259 12.5354167,0.000231481481 12.4983796,0 C10.2435185,0 8.60648148,0.65787037 7.6337963,1.95532407 C5.99791667,4.1375 6.69212963,7.51967593 6.88912037,8.32337963 C13.5092593,8.03287037 17.0699074,2.96388889 17.6083333,2.13425926 Z" id="Path"></path>
                            <polygon id="Path" points="16.8152778 16.0321759 15.4997685 15.0923611 12.8224537 16.7400463 14.5840278 19.4803241"></polygon>
                            <path d="M15.4782407,5.23842593 C16.0613426,6.81921296 17.5863426,7.87407407 18.1662037,8.22800926 C19.1537037,5.50277778 18.6349537,3.67291667 17.8969907,2.53541667 C17.5587963,3.03125 16.7525463,4.11157407 15.4782407,5.23842593 Z" id="Path"></path>
                            <polygon id="Path" points="8.18472222 16.0321759 10.4159722 19.4803241 12.1775463 16.7400463 9.50023148 15.0923611"></polygon>
                            <path d="M15.0858796,14.8034722 L15.0597222,14.6726852 C14.3108796,15.3650463 13.44375,15.7407407 12.5,15.7407407 C11.5043981,15.7407407 10.6488426,15.3400463 9.93472222,14.6756944 L9.88958333,14.7884259 L12.5,16.3949074 L15.0858796,14.8034722 Z" id="Path"></path>
                            <path d="M17.7784722,8.53333333 L17.3439815,10.1805556 C17.3224537,10.2740741 17.2974537,10.3625 17.2743056,10.4541667 C17.7891204,9.84837963 18.0458333,9.26064815 18.0497685,8.69814815 C17.9814815,8.6587963 17.8886574,8.60347222 17.7784722,8.53333333 Z" id="Path"></path>
                            <path d="M14.7777778,20.0331019 C14.7349537,20.0990741 14.6618056,20.1388889 14.5833333,20.1388889 C14.5831019,20.1388889 14.5831019,20.1388889 14.5828704,20.1388889 C14.5043981,20.1386574 14.43125,20.0986111 14.3886574,20.0326389 L13.7298611,19.0078704 L13.4291667,19.5032407 L13.8497685,27.70625 L16.5916667,17.2291667 L14.7777778,20.0331019 Z" id="Path"></path>
                            <path d="M17.6895833,23.7993056 C17.6372685,23.7622685 17.6030093,23.7050926 17.5946759,23.6414352 C17.5863426,23.5777778 17.6043981,23.5138889 17.6449074,23.4643519 L19.6548611,21.0081019 L18.5805556,16.7106481 L17.2872685,16.4025463 L14.1888889,28.2407407 L15.1912037,28.2407407 L19.0740741,24.7881944 L17.6895833,23.7993056 Z" id="Path"></path>
                            <polygon id="Path" points="12.025463 19.6759259 11.5863426 28.2407407 13.4136574 28.2407407 12.974537 19.6759259"></polygon>
                            <path d="M24.9988426,27.0976852 C24.9127315,18.6599537 20.1194444,17.08125 20.0706019,17.0659722 L19.0875,16.831713 L20.131713,21.0087963 C20.149537,21.0798611 20.1326389,21.1548611 20.0865741,21.2113426 L18.1597222,23.5664352 L19.5789352,24.5803241 C19.6363426,24.6212963 19.6717593,24.6858796 19.6756944,24.75625 C19.6793981,24.8268519 19.6509259,24.8949074 19.5981481,24.9416667 L15.8875,28.2407407 L20.6018519,28.2407407 L20.6018519,27.3291667 C20.6018519,27.3266204 20.6032407,27.324537 20.6032407,27.3219907 C20.6032407,27.3194444 20.6018519,27.3173611 20.6018519,27.3148148 L20.6018519,22.2222222 C20.6018519,22.094213 20.7053241,21.9907407 20.8333333,21.9907407 C20.9613426,21.9907407 21.0648148,22.094213 21.0648148,22.2222222 L21.0648148,27.0976852 L24.9988426,27.0976852 Z" id="Path"></path>
                            <path d="M10.6113426,20.0326389 C10.56875,20.0986111 10.4956019,20.1386574 10.4171296,20.1388889 C10.4168981,20.1388889 10.4166667,20.1388889 10.4166667,20.1388889 C10.3381944,20.1388889 10.2650463,20.0990741 10.2222222,20.0331019 L8.40810185,17.2293981 L11.15,27.70625 L11.5706019,19.5032407 L11.2699074,19.0078704 L10.6113426,20.0326389 Z" id="Path"></path>
                            <path d="M5.32430556,24.7560185 C5.32824074,24.6856481 5.36365741,24.6210648 5.42106481,24.5800926 L6.84027778,23.5662037 L4.91342593,21.2111111 C4.86736111,21.1546296 4.85046296,21.0796296 4.86828704,21.0085648 L5.91574074,16.8185185 L4.91759259,17.069213 C4.88125,17.08125 0.087962963,18.6849537 0.00138888889,27.0974537 L3.93518519,27.0974537 L3.93518519,22.2222222 C3.93518519,22.094213 4.03865741,21.9907407 4.16666667,21.9907407 C4.29467593,21.9907407 4.39814815,22.094213 4.39814815,22.2222222 L4.39814815,27.3148148 C4.39814815,27.3173611 4.39675926,27.3194444 4.39675926,27.3219907 C4.39675926,27.324537 4.39814815,27.3266204 4.39814815,27.3291667 L4.39814815,28.2407407 L9.1125,28.2407407 L5.40185185,24.9414352 C5.34907407,24.8946759 5.32060185,24.8266204 5.32430556,24.7560185 L5.32430556,24.7560185 Z" id="Path"></path>
                            <path d="M6.42453704,16.6909722 L5.34537037,21.0083333 L7.35532407,23.4645833 C7.39583333,23.5141204 7.41388889,23.5780093 7.40555556,23.6416667 C7.39722222,23.7053241 7.36273148,23.7622685 7.31064815,23.799537 L5.92638889,24.7881944 L9.80902778,28.2407407 L10.8113426,28.2407407 L7.70439815,16.3696759 L6.42453704,16.6909722 Z" id="Path"></path>
                            <path d="M7.71458333,10.4414352 C7.57731481,9.89097222 7.47337963,9.32523148 7.40300926,8.75833333 C7.25509259,8.77013889 7.10324074,8.77615741 6.95208333,8.78333333 C6.98032407,9.31597222 7.23263889,9.87060185 7.71458333,10.4414352 L7.71458333,10.4414352 Z" id="Path"></path>
                        </g>
                    </g>
                </g>
            </g>
        </g>
    </g>
</svg>