<?xml version="1.0" encoding="UTF-8"?>
<svg width="24px" height="24px" viewBox="0 0 24 24" version="1.1" xmlns="http://www.w3.org/2000/svg" xmlns:xlink="http://www.w3.org/1999/xlink">
    <title>5ADF16AA-C8C3-4AF6-BE86-CD4FD8B35FA7</title>
    <defs>
        <linearGradient x1="80.4411511%" y1="44.2085416%" x2="-6.70345819%" y2="83.34319%" id="linearGradient-1">
            <stop stop-color="#FFFFFF" stop-opacity="0" offset="0%"></stop>
            <stop stop-color="#FFD230" offset="49.9673863%"></stop>
            <stop stop-color="#FFFFFF" stop-opacity="0" offset="100%"></stop>
        </linearGradient>
        <linearGradient x1="85.0216398%" y1="23.2898347%" x2="-6.70345819%" y2="83.34319%" id="linearGradient-2">
            <stop stop-color="#FFFFFF" stop-opacity="0" offset="0%"></stop>
            <stop stop-color="#FFD230" offset="33.3319143%"></stop>
            <stop stop-color="#FFFFFF" stop-opacity="0" offset="100%"></stop>
        </linearGradient>
        <linearGradient x1="110.810846%" y1="-6.64308067%" x2="-6.70345819%" y2="83.34319%" id="linearGradient-3">
            <stop stop-color="#FFFFFF" stop-opacity="0" offset="0%"></stop>
            <stop stop-color="#FFD230" offset="65.1725716%"></stop>
            <stop stop-color="#FFFFFF" stop-opacity="0" offset="100%"></stop>
        </linearGradient>
        <rect id="path-4" x="0" y="0" width="280" height="168" rx="8"></rect>
        <filter x="-7.1%" y="-11.9%" width="115.7%" height="126.2%" filterUnits="objectBoundingBox" id="filter-5">
            <feOffset dx="2" dy="2" in="SourceAlpha" result="shadowOffsetOuter1"></feOffset>
            <feGaussianBlur stdDeviation="7" in="shadowOffsetOuter1" result="shadowBlurOuter1"></feGaussianBlur>
            <feColorMatrix values="0 0 0 0 0   0 0 0 0 0   0 0 0 0 0  0 0 0 0.264884042 0" type="matrix" in="shadowBlurOuter1"></feColorMatrix>
        </filter>
    </defs>
    <g id="Page-1" stroke="none" stroke-width="1" fill="none" fill-rule="evenodd">
        <g id="Academy---Home-1" transform="translate(-256.000000, -840.000000)">
            <g id="Group-7" transform="translate(-101.000000, -134.000000)" fill-rule="nonzero" opacity="0.396077474">
                <g id="image/lines-left" transform="translate(0.225830, 0.913703)">
                    <g transform="translate(474.000000, 550.500000) rotate(6.000000) translate(-474.000000, -550.500000) translate(51.000000, 42.000000)" id="Path-2">
                        <path d="M715.041014,287.318232 C724.177577,423.615769 671.734737,491.944522 557.865084,491.944522 C444.788678,491.944522 388.40248,540.015848 388.40182,636.345981 C384.334729,729.340298 342.065021,777.336629 261.738263,780.08402 L259.29247,780.153424 C178.929811,781.9701 136.390928,820.920491 131.459434,897.182823 L131.321506,899.505224 L129.941176,899.430461 C134.152251,821.688738 176.51608,781.432022 256.816277,778.838541 L259.261228,778.771479 C340.406332,776.937114 382.942844,729.52803 387.020127,636.315784 C387.020127,539.199173 444.069783,490.562224 557.865084,490.562224 C669.737119,490.562224 721.704761,424.310217 713.916068,291.456926 L713.661757,287.410682 L715.041014,287.318232 Z" fill="url(#linearGradient-1)" transform="translate(422.999475, 593.411728) rotate(42.000000) translate(-422.999475, -593.411728) "></path>
                        <path d="M715.041014,269.730659 C724.177577,406.028196 671.734737,474.356949 557.865084,474.356949 C444.788678,474.356949 388.40248,522.428275 388.40182,618.758409 C384.334729,711.752725 342.065021,759.749057 261.738263,762.496447 L259.29247,762.565851 C178.929811,764.382528 136.390928,803.332918 131.459434,879.595251 L131.321506,881.917651 L129.941176,881.842888 C134.152251,804.101165 176.51608,763.844449 256.816277,761.250968 L259.261228,761.183906 C340.406332,759.349541 382.942844,711.940457 387.020127,618.728211 C387.020127,521.6116 444.069783,472.974651 557.865084,472.974651 C669.737119,472.974651 721.704761,406.722645 713.916068,273.869353 L713.661757,269.823109 L715.041014,269.730659 Z" fill="url(#linearGradient-2)" transform="translate(422.999475, 575.824155) rotate(42.000000) translate(-422.999475, -575.824155) "></path>
                        <path d="M715.041014,253.143086 C724.177577,389.440623 671.734737,457.769376 557.865084,457.769376 C444.788678,457.769376 388.40248,505.840702 388.40182,602.170836 C384.334729,695.165152 342.065021,743.161484 261.738263,745.908874 L259.29247,745.978278 C178.929811,747.794955 136.390928,786.745346 131.459434,863.007678 L131.321506,865.330079 L129.941176,865.255316 C134.152251,787.513592 176.51608,747.256876 256.816277,744.663395 L259.261228,744.596333 C340.406332,742.761969 382.942844,695.352884 387.020127,602.140638 C387.020127,505.024027 444.069783,456.387079 557.865084,456.387079 C669.737119,456.387079 721.704761,390.135072 713.916068,257.28178 L713.661757,253.235536 L715.041014,253.143086 Z" fill="url(#linearGradient-3)" transform="translate(422.999475, 559.236582) rotate(42.000000) translate(-422.999475, -559.236582) "></path>
                        <path d="M715.041014,235.173216 C724.177577,371.470753 671.734737,439.799506 557.865084,439.799506 C444.788678,439.799506 388.40248,487.870831 388.40182,584.200965 C384.334729,677.195281 342.065021,725.191613 261.738263,727.939004 L259.29247,728.008407 C178.929811,729.825084 136.390928,768.775475 131.459434,845.037807 L131.321506,847.360208 L129.941176,847.285445 C134.152251,769.543721 176.51608,729.287005 256.816277,726.693525 L259.261228,726.626463 C340.406332,724.792098 382.942844,677.383013 387.020127,584.170768 C387.020127,487.054156 444.069783,438.417208 557.865084,438.417208 C669.737119,438.417208 721.704761,372.165201 713.916068,239.311909 L713.661757,235.265665 L715.041014,235.173216 Z" fill="url(#linearGradient-3)" transform="translate(422.999475, 541.266712) rotate(42.000000) translate(-422.999475, -541.266712) "></path>
                        <path d="M715.041014,217.203345 C724.177577,353.500882 671.734737,421.829635 557.865084,421.829635 C444.788678,421.829635 388.40248,469.900961 388.40182,566.231094 C384.334729,659.225411 342.065021,707.221743 261.738263,709.969133 L259.29247,710.038537 C178.929811,711.855214 136.390928,750.805604 131.459434,827.067937 L131.321506,829.390337 L129.941176,829.315574 C134.152251,751.573851 176.51608,711.317135 256.816277,708.723654 L259.261228,708.656592 C340.406332,706.822227 382.942844,659.413143 387.020127,566.200897 C387.020127,469.084286 444.069783,420.447337 557.865084,420.447337 C669.737119,420.447337 721.704761,354.19533 713.916068,221.342039 L713.661757,217.295795 L715.041014,217.203345 Z" fill="url(#linearGradient-3)" transform="translate(422.999475, 523.296841) rotate(42.000000) translate(-422.999475, -523.296841) "></path>
                    </g>
                </g>
            </g>
            <g id="Group-12" transform="translate(-60.000000, 631.000000)">
                <rect id="Rectangle" fill="#F0F4F6" x="60" y="41" width="1440" height="576"></rect>
                <g id="Group-8" transform="translate(300.000000, 193.000000)">
                    <g id="Rectangle">
                        <use fill="black" fill-opacity="1" filter="url(#filter-5)" xlink:href="#path-4"></use>
                        <use fill="#71AACA" fill-rule="evenodd" xlink:href="#path-4"></use>
                    </g>
                    <g id="icon/checkbox" transform="translate(16.000000, 16.000000)" fill="#F4F4F4" fill-rule="nonzero">
                        <g id="Shape">
                            <path d="M12.0011894,24 C5.37613683,23.99268 0.0072727208,18.6243649 0,12.0000109 L0,11.7600111 C0.131929076,5.16545307 5.56205926,-0.0864261749 12.158045,0.00107774578 C18.7540187,0.0885936665 24.0428229,5.48268478 23.9997386,12.0783708 C23.9566544,18.6741648 18.5977632,23.99868 12.0011894,24 Z M6.49264349,11.5080113 L4.80047578,13.2000098 L9.60095156,18.0000054 L19.2019031,8.40001414 L17.5097354,6.69601568 L9.60095156,14.6040085 L6.49264349,11.5080113 Z"></path>
                        </g>
                    </g>
                </g>
            </g>
        </g>
    </g>
</svg>