<?xml version="1.0" encoding="UTF-8"?>
<svg width="40px" height="40px" viewBox="0 0 40 40" version="1.1" xmlns="http://www.w3.org/2000/svg" xmlns:xlink="http://www.w3.org/1999/xlink">
    <title>743E1E9F-DA37-4C6A-9199-3CD5B43BB7C8</title>
    <g id="Page-1" stroke="none" stroke-width="1" fill="none" fill-rule="evenodd">
        <g id="Academy---About-Us" transform="translate(-1240.000000, -912.000000)" fill="#6292B0" fill-rule="nonzero">
            <g id="Our-values" transform="translate(480.000000, 832.000000)">
                <g id="Group-8" transform="translate(744.000000, 64.000000)">
                    <g id="Path" transform="translate(16.000000, 16.000000)">
                        <path d="M1.42859375,27.8571094 L1.42859375,2.14289063 L0.714296875,2.14289063 C0.32,2.14335938 0.000546875,2.46289062 0,2.85710938 L0,29.2857031 C0.000546875,29.68 0.32,29.9994531 0.714296875,30 L24.2857031,30 L24.2857031,28.5714062 L2.14289063,28.5714062 C1.74835938,28.5714062 1.42859375,28.2516406 1.42859375,27.8571094 Z"></path>
                        <path d="M17.1428906,24.7271094 L17.1428906,1.42859375 C17.1421094,0.639921875 16.5029687,0.00078125 15.7142969,0 L11.4285937,0 L11.4285937,11.4285938 C11.42875,11.6180469 11.3535156,11.7998438 11.2195313,11.9338281 C11.0855469,12.0678125 10.90375,12.1430469 10.7142969,12.1428906 C10.4972656,12.1429687 10.2920312,12.0442969 10.1566406,11.8746875 L7.8571875,9.00046875 L5.55773437,11.8746875 C5.36835937,12.1117187 5.04984375,12.2032031 4.76351563,12.1027344 C4.4771875,12.0023438 4.285625,11.7319531 4.28570312,11.4285938 L4.28570312,0 L3.57140625,0 C3.17710938,0.000546875 2.85765625,0.32 2.85710937,0.714296875 L2.85710937,24.2857031 L15.64625,24.2857031 C16.1767969,24.2889844 16.6955469,24.4419531 17.1428906,24.7271094 Z"></path>
                        <path d="M7.85710938,7.14289062 C8.07414063,7.14289062 8.27929688,7.2415625 8.41476563,7.41109375 L10,9.39242188 L10,0 L5.71429687,0 L5.71429687,9.39242188 L7.29945312,7.41101563 C7.43492187,7.2415625 7.64015625,7.14289062 7.85710938,7.14289062 Z"></path>
                        <path d="M35.7142969,15.0421094 L35.7142969,2.85710937 C35.71375,2.4628125 35.3942969,2.14335937 35,2.1428125 L34.2857031,2.1428125 L34.2857031,15 L35,15 C35.2386719,15.0008594 35.4771875,15.0149219 35.7142969,15.0421094 Z"></path>
                        <path d="M15.64625,25.7142969 L2.85710937,25.7142969 L2.85710937,27.1428906 L17.1260156,27.1428906 C17.0708594,26.3582813 16.4323437,25.7417969 15.64625,25.7142969 Z"></path>
                        <path d="M25.7142969,35 C25.7174219,37.7601563 27.9541406,39.996875 30.7142969,40 L35,40 C37.7601563,39.996875 39.996875,37.7601563 40,35 L40,27.1428906 L25.7142969,27.1428906 L25.7142969,35 Z"></path>
                        <path d="M18.5882813,27.1428906 L24.2857031,27.1428906 L24.2857031,25.7142969 L20.0714844,25.7142969 C19.2844531,25.7409375 18.6444531,26.3573438 18.5882813,27.1428906 Z"></path>
                        <path d="M35,16.4285938 L33.5714063,16.4285938 L33.5714063,25.7142969 L40,25.7142969 L40,21.4285938 C39.996875,18.6684375 37.7601563,16.4316406 35,16.4285938 Z"></path>
                        <path d="M25.7142969,21.4285938 L25.7142969,25.7142969 L32.1428906,25.7142969 L32.1428906,16.4285938 L30.7142969,16.4285938 C27.9541406,16.4316406 25.7174219,18.6684375 25.7142969,21.4285938 Z"></path>
                        <path d="M30.7142969,15 L32.8571875,15 L32.8571875,0.714296875 C32.8566406,0.32 32.5371875,0.000546875 32.1428906,0 L20,0 C19.2113281,0.00078125 18.5721875,0.639921875 18.5714062,1.42859375 L18.5714062,24.7282031 C19.0197656,24.4423438 19.5397656,24.2889844 20.0714844,24.2857031 L24.2857031,24.2857031 L24.2857031,21.4285938 C24.2898438,17.8798437 27.165625,15.0041406 30.7142969,15 Z"></path>
                    </g>
                </g>
            </g>
        </g>
    </g>
</svg>