<?xml version="1.0" encoding="UTF-8"?>
<svg width="40px" height="40px" viewBox="0 0 40 40" version="1.1" xmlns="http://www.w3.org/2000/svg" xmlns:xlink="http://www.w3.org/1999/xlink">
    <title>2C737191-603D-4FE3-966B-75A418BC577F</title>
    <defs>
        <rect id="path-1" x="0" y="0" width="224" height="184" rx="8"></rect>
        <filter x="-8.0%" y="-10.3%" width="118.8%" height="122.8%" filterUnits="objectBoundingBox" id="filter-2">
            <feOffset dx="3" dy="2" in="SourceAlpha" result="shadowOffsetOuter1"></feOffset>
            <feGaussianBlur stdDeviation="6.5" in="shadowOffsetOuter1" result="shadowBlurOuter1"></feGaussianBlur>
            <feColorMatrix values="0 0 0 0 0   0 0 0 0 0   0 0 0 0 0  0 0 0 0.0411812309 0" type="matrix" in="shadowBlurOuter1"></feColorMatrix>
        </filter>
    </defs>
    <g id="Page-1" stroke="none" stroke-width="1" fill="none" fill-rule="evenodd">
        <g id="Academy---Home-1" transform="translate(-1000.000000, -1412.000000)">
            <g id="Group-13" transform="translate(240.000000, 1308.000000)">
                <g id="Group-8" transform="translate(744.000000, 88.000000)">
                    <g id="Rectangle">
                        <use fill="black" fill-opacity="1" filter="url(#filter-2)" xlink:href="#path-1"></use>
                        <use fill="#F5FCFF" fill-rule="evenodd" xlink:href="#path-1"></use>
                    </g>
                    <g id="icon/category/dbusiness" transform="translate(16.000000, 16.000000)">
                        <rect id="Rectangle" fill="#6292B0" x="0" y="0" width="40" height="40" rx="8"></rect>
                        <g id="001-portfolio" transform="translate(8.000000, 8.000000)" fill="#F0F4F6" fill-rule="nonzero">
                            <polygon id="Path" points="10.2638561 11.6745283 14.6418042 11.6745283 14.6418042 13.1338443 10.2638561 13.1338443"></polygon>
                            <path d="M20.2056366,13.1338443 L16.1011203,13.1338443 L16.1011203,13.8635024 C16.1011203,14.2667144 15.7746743,14.5931604 15.3714623,14.5931604 L9.53419811,14.5931604 C9.13098608,14.5931604 8.80454009,14.2667144 8.80454009,13.8635024 L8.80454009,13.1338443 L4.70002374,13.1338443 C3.75659868,13.1338443 2.92224237,12.5324465 2.62353862,11.6374753 L0,3.7655294 L0,19.7007665 C0,20.9077425 0.981998084,21.8897406 2.18897406,21.8897406 L22.7166863,21.8897406 C23.9236623,21.8897406 24.9056604,20.9077425 24.9056604,19.7007665 L24.9056604,3.76609946 L22.2819318,11.6374753 C21.983418,12.5324465 21.1490617,13.1338443 20.2056366,13.1338443 Z" id="Path"></path>
                            <path d="M15.3714623,0 L9.53419811,0 C8.32722214,0 7.34522406,0.981998084 7.34522406,2.18897406 L7.34522406,2.91863208 L1.25542984,2.91863208 L4.00741863,11.1757387 C4.10717659,11.4742524 4.38573872,11.6745283 4.70002374,11.6745283 L8.80454009,11.6745283 L8.80454009,10.9448703 C8.80454009,10.5416582 9.13098608,10.2152123 9.53419811,10.2152123 L15.3714623,10.2152123 C15.7746743,10.2152123 16.1011203,10.5416582 16.1011203,10.9448703 L16.1011203,11.6745283 L20.2056366,11.6745283 C20.5199217,11.6745283 20.7984838,11.4742524 20.8982418,11.1757387 L23.6504205,2.91863208 L17.5604363,2.91863208 L17.5604363,2.18897406 C17.5604363,0.981998084 16.5784382,0 15.3714623,0 Z M8.80454009,2.91863208 L8.80454009,2.18897406 C8.80454009,1.78633203 9.13155608,1.45931604 9.53419811,1.45931604 L15.3714623,1.45931604 C15.7741043,1.45931604 16.1011203,1.78633203 16.1011203,2.18897406 L16.1011203,2.91863208 L8.80454009,2.91863208 Z" id="Shape"></path>
                        </g>
                    </g>
                </g>
            </g>
        </g>
    </g>
</svg>