<?xml version="1.0" encoding="UTF-8"?>
<svg width="40px" height="40px" viewBox="0 0 40 40" version="1.1" xmlns="http://www.w3.org/2000/svg" xmlns:xlink="http://www.w3.org/1999/xlink">
    <title>00238601-B835-49AF-A51C-DAE9B4DC4BE4</title>
    <defs>
        <rect id="path-1" x="0" y="0" width="224" height="184" rx="8"></rect>
        <filter x="-8.0%" y="-10.3%" width="118.8%" height="122.8%" filterUnits="objectBoundingBox" id="filter-2">
            <feOffset dx="3" dy="2" in="SourceAlpha" result="shadowOffsetOuter1"></feOffset>
            <feGaussianBlur stdDeviation="6.5" in="shadowOffsetOuter1" result="shadowBlurOuter1"></feGaussianBlur>
            <feColorMatrix values="0 0 0 0 0   0 0 0 0 0   0 0 0 0 0  0 0 0 0.0411812309 0" type="matrix" in="shadowBlurOuter1"></feColorMatrix>
        </filter>
    </defs>
    <g id="Page-1" stroke="none" stroke-width="1" fill="none" fill-rule="evenodd">
        <g id="Academy---Home-1" transform="translate(-256.000000, -1412.000000)">
            <g id="Group-13" transform="translate(240.000000, 1308.000000)">
                <g id="Group-8" transform="translate(0.000000, 88.000000)">
                    <g id="Rectangle">
                        <use fill="black" fill-opacity="1" filter="url(#filter-2)" xlink:href="#path-1"></use>
                        <use fill="#F5FCFF" fill-rule="evenodd" xlink:href="#path-1"></use>
                    </g>
                    <g id="icon/category/design" transform="translate(16.000000, 16.000000)">
                        <rect id="Rectangle" fill="#FFD230" x="0" y="0" width="40" height="40" rx="8"></rect>
                        <g id="001-vector" transform="translate(8.000000, 8.000000)" fill="#FFFFFF" fill-rule="nonzero">
                            <path d="M22.5642689,0 L19.7948113,0 C19.4183921,0 19.1137972,0.307630759 19.1137972,0.687801667 L19.1137972,1.37560333 L13.5402412,1.37560333 C13.2581651,0.576744625 12.5093219,0 11.6226415,0 C10.7359611,0 9.98711792,0.576744625 9.70504186,1.37560333 L4.13148585,1.37560333 L4.13148585,0.687801667 C4.13148585,0.307630759 3.82689092,0 3.4504717,0 L0.681014151,0 C0.304594929,0 0,0.307630759 0,0.687801667 L0,3.43900834 C0,3.81917925 0.304594929,4.12681 0.681014151,4.12681 L3.4504717,4.12681 C3.82689092,4.12681 4.13148585,3.81917925 4.13148585,3.43900834 L4.13148585,2.74203598 L6.92836557,2.74203598 C4.56492866,4.23323585 3.00654127,6.85233875 2.8202612,9.78581286 C2.00313502,10.0559355 1.40742925,10.8241641 1.40742925,11.7384818 C1.40742925,12.8762892 2.32389269,13.8018868 3.4504717,13.8018868 C4.57705071,13.8018868 5.49351415,12.8762892 5.49351415,11.7384818 C5.49351415,10.8608469 4.94593337,10.1146738 4.17961085,9.81690149 C4.41197288,6.54640456 6.67148703,3.78987889 9.81445814,3.00340061 C10.154375,3.66722093 10.8329829,4.12681 11.6226415,4.12681 C12.4123001,4.12681 13.090908,3.66722093 13.4308249,3.00340061 C16.573796,3.78983304 18.8333101,6.54635871 19.0656722,9.81685564 C18.2993496,10.1146738 17.7517689,10.8608469 17.7517689,11.7384818 C17.7517689,12.8762892 18.6682323,13.8018868 19.7948113,13.8018868 C20.9213903,13.8018868 21.8378538,12.8762892 21.8378538,11.7384818 C21.8378538,10.8241641 21.242148,10.0559355 20.4250218,9.78581286 C20.2387417,6.85233875 18.6803544,4.24240654 16.3169175,2.75120667 L19.1137972,2.75120667 L19.1137972,3.43900834 C19.1137972,3.81917925 19.4183921,4.12681 19.7948113,4.12681 L22.5642689,4.12681 C22.9406881,4.12681 23.245283,3.81917925 23.245283,3.43900834 L23.245283,0.687801667 C23.245283,0.307630759 22.9406881,0 22.5642689,0 Z" id="Path"></path>
                            <path d="M15.9509705,22.3590566 C15.590267,21.2154173 14.5510954,20.3396226 13.3282161,20.3396226 L9.19065441,20.3396226 C7.96777507,20.3396226 6.92860347,21.2154173 6.56790004,22.3590566 C6.428832,22.8000025 6.79086864,23.245283 7.23864476,23.245283 L15.2802257,23.245283 C15.7279559,23.245283 16.0900385,22.8000025 15.9509705,22.3590566 Z" id="Path"></path>
                            <path d="M18.0451132,14.022272 L12.671907,5.81132075 L12.671907,12.4419221 C13.4687405,12.7314145 14.044023,13.4999463 14.044023,14.4099393 C14.044023,15.5661383 13.1207719,16.5066974 11.9858491,16.5066974 C10.8509262,16.5066974 9.9276751,15.5661383 9.9276751,14.4099393 C9.9276751,13.4999463 10.5029576,12.7314145 11.2997911,12.4419221 L11.2997911,5.81132075 L5.92658493,14.022272 C5.74500825,14.2993702 5.78118638,14.6686326 6.01234218,14.9041219 C7.27180743,16.187198 8.07687361,17.8401423 8.3875664,19.6132075 C8.86414801,19.4162521 9.38248769,19.3023748 9.9276751,19.3023748 L14.044023,19.3023748 C14.5892104,19.3023748 15.1075501,19.4162055 15.5841317,19.6132075 C15.8948245,17.8399559 16.6998907,16.187198 17.9593559,14.9041219 C18.1905117,14.6686326 18.2266899,14.2993702 18.0451132,14.022272 Z" id="Path"></path>
                            <path d="M11.6226415,13.8018868 C11.2218541,13.8018868 10.8962264,14.1275145 10.8962264,14.5283019 C10.8962264,14.9290893 11.2218541,15.254717 11.6226415,15.254717 C12.0234289,15.254717 12.3490566,14.9290893 12.3490566,14.5283019 C12.3490566,14.1275145 12.0234289,13.8018868 11.6226415,13.8018868 Z" id="Path"></path>
                        </g>
                    </g>
                </g>
            </g>
        </g>
    </g>
</svg>