<svg xmlns="http://www.w3.org/2000/svg" width="723" height="723" viewBox="0 0 723 723">
  <g id="Group_84" data-name="Group 84" transform="translate(-1812 -265)">
    <circle id="Ellipse_2" data-name="Ellipse 2" cx="13" cy="13" r="13" transform="translate(1812 265)" fill="#e6e8e9"/>
    <ellipse id="Ellipse_3" data-name="Ellipse 3" cx="12.5" cy="13" rx="12.5" ry="13" transform="translate(1890 265)" fill="#e6e8e9"/>
    <circle id="Ellipse_4" data-name="Ellipse 4" cx="13" cy="13" r="13" transform="translate(1967 265)" fill="#e6e8e9"/>
    <ellipse id="Ellipse_4-2" data-name="Ellipse 4" cx="12.5" cy="13" rx="12.5" ry="13" transform="translate(2045 265)" fill="#e6e8e9"/>
    <circle id="Ellipse_4-3" data-name="Ellipse 4" cx="13" cy="13" r="13" transform="translate(2122 265)" fill="#e6e8e9"/>
    <ellipse id="Ellipse_4-4" data-name="Ellipse 4" cx="12.5" cy="13" rx="12.5" ry="13" transform="translate(2200 265)" fill="#e6e8e9"/>
    <circle id="Ellipse_4-5" data-name="Ellipse 4" cx="13" cy="13" r="13" transform="translate(2277 265)" fill="#e6e8e9"/>
    <ellipse id="Ellipse_4-6" data-name="Ellipse 4" cx="12.5" cy="13" rx="12.5" ry="13" transform="translate(2355 265)" fill="#e6e8e9"/>
    <circle id="Ellipse_4-7" data-name="Ellipse 4" cx="13" cy="13" r="13" transform="translate(2432 265)" fill="#e6e8e9"/>
    <ellipse id="Ellipse_4-8" data-name="Ellipse 4" cx="12.5" cy="13" rx="12.5" ry="13" transform="translate(2510 265)" fill="#e6e8e9"/>
    <ellipse id="Ellipse_2-2" data-name="Ellipse 2" cx="13" cy="12.5" rx="13" ry="12.5" transform="translate(1812 343)" fill="#e6e8e9"/>
    <circle id="Ellipse_3-2" data-name="Ellipse 3" cx="12.5" cy="12.5" r="12.5" transform="translate(1890 343)" fill="#e6e8e9"/>
    <ellipse id="Ellipse_4-9" data-name="Ellipse 4" cx="13" cy="12.5" rx="13" ry="12.5" transform="translate(1967 343)" fill="#e6e8e9"/>
    <circle id="Ellipse_4-10" data-name="Ellipse 4" cx="12.5" cy="12.5" r="12.5" transform="translate(2045 343)" fill="#e6e8e9"/>
    <ellipse id="Ellipse_4-11" data-name="Ellipse 4" cx="13" cy="12.5" rx="13" ry="12.5" transform="translate(2122 343)" fill="#e6e8e9"/>
    <circle id="Ellipse_4-12" data-name="Ellipse 4" cx="12.5" cy="12.5" r="12.5" transform="translate(2200 343)" fill="#e6e8e9"/>
    <ellipse id="Ellipse_4-13" data-name="Ellipse 4" cx="13" cy="12.5" rx="13" ry="12.5" transform="translate(2277 343)" fill="#e6e8e9"/>
    <circle id="Ellipse_4-14" data-name="Ellipse 4" cx="12.5" cy="12.5" r="12.5" transform="translate(2355 343)" fill="#e6e8e9"/>
    <ellipse id="Ellipse_4-15" data-name="Ellipse 4" cx="13" cy="12.5" rx="13" ry="12.5" transform="translate(2432 343)" fill="#e6e8e9"/>
    <circle id="Ellipse_4-16" data-name="Ellipse 4" cx="12.5" cy="12.5" r="12.5" transform="translate(2510 343)" fill="#e6e8e9"/>
    <circle id="Ellipse_2-3" data-name="Ellipse 2" cx="13" cy="13" r="13" transform="translate(1812 420)" fill="#e6e8e9"/>
    <ellipse id="Ellipse_3-3" data-name="Ellipse 3" cx="12.5" cy="13" rx="12.5" ry="13" transform="translate(1890 420)" fill="#e6e8e9"/>
    <circle id="Ellipse_4-17" data-name="Ellipse 4" cx="13" cy="13" r="13" transform="translate(1967 420)" fill="#e6e8e9"/>
    <ellipse id="Ellipse_4-18" data-name="Ellipse 4" cx="12.5" cy="13" rx="12.5" ry="13" transform="translate(2045 420)" fill="#e6e8e9"/>
    <circle id="Ellipse_4-19" data-name="Ellipse 4" cx="13" cy="13" r="13" transform="translate(2122 420)" fill="#e6e8e9"/>
    <ellipse id="Ellipse_4-20" data-name="Ellipse 4" cx="12.5" cy="13" rx="12.5" ry="13" transform="translate(2200 420)" fill="#e6e8e9"/>
    <circle id="Ellipse_4-21" data-name="Ellipse 4" cx="13" cy="13" r="13" transform="translate(2277 420)" fill="#e6e8e9"/>
    <ellipse id="Ellipse_4-22" data-name="Ellipse 4" cx="12.5" cy="13" rx="12.5" ry="13" transform="translate(2355 420)" fill="#e6e8e9"/>
    <circle id="Ellipse_4-23" data-name="Ellipse 4" cx="13" cy="13" r="13" transform="translate(2432 420)" fill="#e6e8e9"/>
    <ellipse id="Ellipse_4-24" data-name="Ellipse 4" cx="12.5" cy="13" rx="12.5" ry="13" transform="translate(2510 420)" fill="#e6e8e9"/>
    <ellipse id="Ellipse_2-4" data-name="Ellipse 2" cx="13" cy="12.5" rx="13" ry="12.5" transform="translate(1812 498)" fill="#e6e8e9"/>
    <circle id="Ellipse_3-4" data-name="Ellipse 3" cx="12.5" cy="12.5" r="12.5" transform="translate(1890 498)" fill="#e6e8e9"/>
    <ellipse id="Ellipse_4-25" data-name="Ellipse 4" cx="13" cy="12.5" rx="13" ry="12.5" transform="translate(1967 498)" fill="#e6e8e9"/>
    <circle id="Ellipse_4-26" data-name="Ellipse 4" cx="12.5" cy="12.5" r="12.5" transform="translate(2045 498)" fill="#e6e8e9"/>
    <ellipse id="Ellipse_4-27" data-name="Ellipse 4" cx="13" cy="12.5" rx="13" ry="12.5" transform="translate(2122 498)" fill="#e6e8e9"/>
    <circle id="Ellipse_4-28" data-name="Ellipse 4" cx="12.5" cy="12.5" r="12.5" transform="translate(2200 498)" fill="#e6e8e9"/>
    <ellipse id="Ellipse_4-29" data-name="Ellipse 4" cx="13" cy="12.5" rx="13" ry="12.5" transform="translate(2277 498)" fill="#e6e8e9"/>
    <circle id="Ellipse_4-30" data-name="Ellipse 4" cx="12.5" cy="12.5" r="12.5" transform="translate(2355 498)" fill="#e6e8e9"/>
    <ellipse id="Ellipse_4-31" data-name="Ellipse 4" cx="13" cy="12.5" rx="13" ry="12.5" transform="translate(2432 498)" fill="#e6e8e9"/>
    <circle id="Ellipse_4-32" data-name="Ellipse 4" cx="12.5" cy="12.5" r="12.5" transform="translate(2510 498)" fill="#e6e8e9"/>
    <circle id="Ellipse_2-5" data-name="Ellipse 2" cx="13" cy="13" r="13" transform="translate(1812 575)" fill="#e6e8e9"/>
    <ellipse id="Ellipse_3-5" data-name="Ellipse 3" cx="12.5" cy="13" rx="12.5" ry="13" transform="translate(1890 575)" fill="#e6e8e9"/>
    <circle id="Ellipse_4-33" data-name="Ellipse 4" cx="13" cy="13" r="13" transform="translate(1967 575)" fill="#e6e8e9"/>
    <ellipse id="Ellipse_4-34" data-name="Ellipse 4" cx="12.5" cy="13" rx="12.5" ry="13" transform="translate(2045 575)" fill="#e6e8e9"/>
    <circle id="Ellipse_4-35" data-name="Ellipse 4" cx="13" cy="13" r="13" transform="translate(2122 575)" fill="#e6e8e9"/>
    <ellipse id="Ellipse_4-36" data-name="Ellipse 4" cx="12.5" cy="13" rx="12.5" ry="13" transform="translate(2200 575)" fill="#e6e8e9"/>
    <circle id="Ellipse_4-37" data-name="Ellipse 4" cx="13" cy="13" r="13" transform="translate(2277 575)" fill="#e6e8e9"/>
    <ellipse id="Ellipse_4-38" data-name="Ellipse 4" cx="12.5" cy="13" rx="12.5" ry="13" transform="translate(2355 575)" fill="#e6e8e9"/>
    <circle id="Ellipse_4-39" data-name="Ellipse 4" cx="13" cy="13" r="13" transform="translate(2432 575)" fill="#e6e8e9"/>
    <ellipse id="Ellipse_4-40" data-name="Ellipse 4" cx="12.5" cy="13" rx="12.5" ry="13" transform="translate(2510 575)" fill="#e6e8e9"/>
    <ellipse id="Ellipse_2-6" data-name="Ellipse 2" cx="13" cy="12.5" rx="13" ry="12.5" transform="translate(1812 653)" fill="#e6e8e9"/>
    <circle id="Ellipse_3-6" data-name="Ellipse 3" cx="12.5" cy="12.5" r="12.5" transform="translate(1890 653)" fill="#e6e8e9"/>
    <ellipse id="Ellipse_4-41" data-name="Ellipse 4" cx="13" cy="12.5" rx="13" ry="12.5" transform="translate(1967 653)" fill="#e6e8e9"/>
    <circle id="Ellipse_4-42" data-name="Ellipse 4" cx="12.5" cy="12.5" r="12.5" transform="translate(2045 653)" fill="#e6e8e9"/>
    <ellipse id="Ellipse_4-43" data-name="Ellipse 4" cx="13" cy="12.5" rx="13" ry="12.5" transform="translate(2122 653)" fill="#e6e8e9"/>
    <circle id="Ellipse_4-44" data-name="Ellipse 4" cx="12.5" cy="12.5" r="12.5" transform="translate(2200 653)" fill="#e6e8e9"/>
    <ellipse id="Ellipse_4-45" data-name="Ellipse 4" cx="13" cy="12.5" rx="13" ry="12.5" transform="translate(2277 653)" fill="#e6e8e9"/>
    <circle id="Ellipse_4-46" data-name="Ellipse 4" cx="12.5" cy="12.5" r="12.5" transform="translate(2355 653)" fill="#e6e8e9"/>
    <ellipse id="Ellipse_4-47" data-name="Ellipse 4" cx="13" cy="12.5" rx="13" ry="12.5" transform="translate(2432 653)" fill="#e6e8e9"/>
    <circle id="Ellipse_4-48" data-name="Ellipse 4" cx="12.5" cy="12.5" r="12.5" transform="translate(2510 653)" fill="#e6e8e9"/>
    <circle id="Ellipse_2-7" data-name="Ellipse 2" cx="13" cy="13" r="13" transform="translate(1812 730)" fill="#e6e8e9"/>
    <ellipse id="Ellipse_3-7" data-name="Ellipse 3" cx="12.5" cy="13" rx="12.5" ry="13" transform="translate(1890 730)" fill="#e6e8e9"/>
    <circle id="Ellipse_4-49" data-name="Ellipse 4" cx="13" cy="13" r="13" transform="translate(1967 730)" fill="#e6e8e9"/>
    <ellipse id="Ellipse_4-50" data-name="Ellipse 4" cx="12.5" cy="13" rx="12.5" ry="13" transform="translate(2045 730)" fill="#e6e8e9"/>
    <circle id="Ellipse_4-51" data-name="Ellipse 4" cx="13" cy="13" r="13" transform="translate(2122 730)" fill="#e6e8e9"/>
    <ellipse id="Ellipse_4-52" data-name="Ellipse 4" cx="12.5" cy="13" rx="12.5" ry="13" transform="translate(2200 730)" fill="#e6e8e9"/>
    <circle id="Ellipse_4-53" data-name="Ellipse 4" cx="13" cy="13" r="13" transform="translate(2277 730)" fill="#e6e8e9"/>
    <ellipse id="Ellipse_4-54" data-name="Ellipse 4" cx="12.5" cy="13" rx="12.5" ry="13" transform="translate(2355 730)" fill="#e6e8e9"/>
    <circle id="Ellipse_4-55" data-name="Ellipse 4" cx="13" cy="13" r="13" transform="translate(2432 730)" fill="#e6e8e9"/>
    <ellipse id="Ellipse_4-56" data-name="Ellipse 4" cx="12.5" cy="13" rx="12.5" ry="13" transform="translate(2510 730)" fill="#e6e8e9"/>
    <ellipse id="Ellipse_2-8" data-name="Ellipse 2" cx="13" cy="12.5" rx="13" ry="12.5" transform="translate(1812 808)" fill="#e6e8e9"/>
    <circle id="Ellipse_3-8" data-name="Ellipse 3" cx="12.5" cy="12.5" r="12.5" transform="translate(1890 808)" fill="#e6e8e9"/>
    <ellipse id="Ellipse_4-57" data-name="Ellipse 4" cx="13" cy="12.5" rx="13" ry="12.5" transform="translate(1967 808)" fill="#e6e8e9"/>
    <circle id="Ellipse_4-58" data-name="Ellipse 4" cx="12.5" cy="12.5" r="12.5" transform="translate(2045 808)" fill="#e6e8e9"/>
    <ellipse id="Ellipse_4-59" data-name="Ellipse 4" cx="13" cy="12.5" rx="13" ry="12.5" transform="translate(2122 808)" fill="#e6e8e9"/>
    <circle id="Ellipse_4-60" data-name="Ellipse 4" cx="12.5" cy="12.5" r="12.5" transform="translate(2200 808)" fill="#e6e8e9"/>
    <ellipse id="Ellipse_4-61" data-name="Ellipse 4" cx="13" cy="12.5" rx="13" ry="12.5" transform="translate(2277 808)" fill="#e6e8e9"/>
    <circle id="Ellipse_4-62" data-name="Ellipse 4" cx="12.5" cy="12.5" r="12.5" transform="translate(2355 808)" fill="#e6e8e9"/>
    <ellipse id="Ellipse_4-63" data-name="Ellipse 4" cx="13" cy="12.5" rx="13" ry="12.5" transform="translate(2432 808)" fill="#e6e8e9"/>
    <circle id="Ellipse_4-64" data-name="Ellipse 4" cx="12.5" cy="12.5" r="12.5" transform="translate(2510 808)" fill="#e6e8e9"/>
    <circle id="Ellipse_2-9" data-name="Ellipse 2" cx="13" cy="13" r="13" transform="translate(1812 885)" fill="#e6e8e9"/>
    <ellipse id="Ellipse_3-9" data-name="Ellipse 3" cx="12.5" cy="13" rx="12.5" ry="13" transform="translate(1890 885)" fill="#e6e8e9"/>
    <circle id="Ellipse_4-65" data-name="Ellipse 4" cx="13" cy="13" r="13" transform="translate(1967 885)" fill="#e6e8e9"/>
    <ellipse id="Ellipse_4-66" data-name="Ellipse 4" cx="12.5" cy="13" rx="12.5" ry="13" transform="translate(2045 885)" fill="#e6e8e9"/>
    <circle id="Ellipse_4-67" data-name="Ellipse 4" cx="13" cy="13" r="13" transform="translate(2122 885)" fill="#e6e8e9"/>
    <ellipse id="Ellipse_4-68" data-name="Ellipse 4" cx="12.5" cy="13" rx="12.5" ry="13" transform="translate(2200 885)" fill="#e6e8e9"/>
    <circle id="Ellipse_4-69" data-name="Ellipse 4" cx="13" cy="13" r="13" transform="translate(2277 885)" fill="#e6e8e9"/>
    <ellipse id="Ellipse_4-70" data-name="Ellipse 4" cx="12.5" cy="13" rx="12.5" ry="13" transform="translate(2355 885)" fill="#e6e8e9"/>
    <circle id="Ellipse_4-71" data-name="Ellipse 4" cx="13" cy="13" r="13" transform="translate(2432 885)" fill="#e6e8e9"/>
    <ellipse id="Ellipse_4-72" data-name="Ellipse 4" cx="12.5" cy="13" rx="12.5" ry="13" transform="translate(2510 885)" fill="#e6e8e9"/>
    <ellipse id="Ellipse_2-10" data-name="Ellipse 2" cx="13" cy="12.5" rx="13" ry="12.5" transform="translate(1812 963)" fill="#e6e8e9"/>
    <circle id="Ellipse_3-10" data-name="Ellipse 3" cx="12.5" cy="12.5" r="12.5" transform="translate(1890 963)" fill="#e6e8e9"/>
    <ellipse id="Ellipse_4-73" data-name="Ellipse 4" cx="13" cy="12.5" rx="13" ry="12.5" transform="translate(1967 963)" fill="#e6e8e9"/>
    <circle id="Ellipse_4-74" data-name="Ellipse 4" cx="12.5" cy="12.5" r="12.5" transform="translate(2045 963)" fill="#e6e8e9"/>
    <ellipse id="Ellipse_4-75" data-name="Ellipse 4" cx="13" cy="12.5" rx="13" ry="12.5" transform="translate(2122 963)" fill="#e6e8e9"/>
    <circle id="Ellipse_4-76" data-name="Ellipse 4" cx="12.5" cy="12.5" r="12.5" transform="translate(2200 963)" fill="#e6e8e9"/>
    <ellipse id="Ellipse_4-77" data-name="Ellipse 4" cx="13" cy="12.5" rx="13" ry="12.5" transform="translate(2277 963)" fill="#e6e8e9"/>
    <circle id="Ellipse_4-78" data-name="Ellipse 4" cx="12.5" cy="12.5" r="12.5" transform="translate(2355 963)" fill="#e6e8e9"/>
    <ellipse id="Ellipse_4-79" data-name="Ellipse 4" cx="13" cy="12.5" rx="13" ry="12.5" transform="translate(2432 963)" fill="#e6e8e9"/>
    <circle id="Ellipse_4-80" data-name="Ellipse 4" cx="12.5" cy="12.5" r="12.5" transform="translate(2510 963)" fill="#e6e8e9"/>
  </g>
</svg>
