<?xml version="1.0" encoding="UTF-8"?>
<svg width="16px" height="16px" viewBox="0 0 16 16" version="1.1" xmlns="http://www.w3.org/2000/svg" xmlns:xlink="http://www.w3.org/1999/xlink">
    <title>5DE69667-327F-448C-AA10-1983429E55AD</title>
    <g id="Page-1" stroke="none" stroke-width="1" fill="none" fill-rule="evenodd">
        <g id="Academy---Home-1" transform="translate(-1049.000000, -2352.000000)" fill="#253946" fill-rule="nonzero">
            <g id="Group-14" transform="translate(1048.000000, 2312.000000)">
                <g id="Path" transform="translate(1.000000, 40.000000)">
                    <path d="M16,8.04889705 C16,3.60362536 12.4182667,0 8,0 C3.58173333,0 0,3.60362536 0,8.04889705 C0,12.0662693 2.92547,15.3961986 6.75,16 L6.75,10.3755314 L4.71873333,10.3755314 L4.71873333,8.04889705 L6.75,8.04889705 L6.75,6.27562442 C6.75,4.2583696 7.94436667,3.14410041 9.77173333,3.14410041 C10.6467333,3.14410041 11.5625,3.30130543 11.5625,3.30130543 L11.5625,5.28208869 L10.5537667,5.28208869 C9.56,5.28208869 9.25,5.90259158 9.25,6.53972885 L9.25,8.04889705 L11.4687333,8.04889705 L11.1140667,10.3755314 L9.25,10.3755314 L9.25,16 C13.0745333,15.3961986 16,12.0662693 16,8.04889705 Z"></path>
                </g>
            </g>
        </g>
    </g>
</svg>