<?xml version="1.0" encoding="UTF-8"?>
<svg width="16px" height="16px" viewBox="0 0 16 16" version="1.1" xmlns="http://www.w3.org/2000/svg" xmlns:xlink="http://www.w3.org/1999/xlink">
    <title>1A455AAA-8F59-4335-A037-69719D0DFC40</title>
    <g id="Page-1" stroke="none" stroke-width="1" fill="none" fill-rule="evenodd">
        <g id="Academy---Home-1" transform="translate(-1089.000000, -2352.000000)" fill="#2E3A59" fill-rule="nonzero">
            <g id="Group-14" transform="translate(1048.000000, 2312.000000)">
                <g id="instagram" transform="translate(41.000000, 40.000000)">
                    <path d="M8.05442105,16.1419474 C5.85332368,16.1419474 5.59385,16.1303158 4.73490263,16.0927368 C4.06507579,16.0707263 3.40392789,15.9345474 2.77990263,15.6901053 C1.70023263,15.2699368 0.846501579,14.4159105 0.426744737,13.3360526 C0.191706316,12.7097368 0.0649310526,12.0480789 0.05185,11.3792632 C0.00174473684,10.5221053 0.00174473684,10.2411579 0.00174473684,8.05710526 C0.00174473684,5.84978947 0.0133763158,5.59210526 0.05185,4.73763158 C0.0652173684,4.06973737 0.191983684,3.40895632 0.426744737,2.78352632 C0.846045263,1.70226368 1.70116316,0.847476842 2.78258684,0.428578947 C3.40769474,0.192556316 4.06863684,0.06545 4.73669211,0.0527894737 C5.59116579,0.00447368421 5.87211316,0.00447368421 8.05442105,0.00447368421 C10.2733684,0.00447368421 10.5283684,0.0161052632 11.3738947,0.0527894737 C12.0436053,0.0655573684 12.7063368,0.192645789 13.3333684,0.428578947 C14.4144789,0.847951053 15.2694,1.70257684 15.6892105,2.78352632 C15.9281947,3.41807368 16.0556053,4.08918 16.0658947,4.76715789 C16.116,5.62432474 16.116,5.90437737 16.116,8.08752632 C16.116,10.2706842 16.1034737,10.557 16.0658947,11.4043158 C16.0525632,12.0737579 15.9254211,12.7360421 15.6901053,13.3628947 C15.2692211,14.4434684 14.4142105,15.2978526 13.3333684,15.7178421 C12.7072316,15.9524421 12.0459316,16.0792263 11.3774737,16.0927368 C10.523,16.1419474 10.2429474,16.1419474 8.05442105,16.1419474 Z M8.024,1.42084211 C5.83542895,1.42084211 5.60816579,1.43157895 4.75369211,1.47005263 C4.24368316,1.47681684 3.73859526,1.57093421 3.26037632,1.74831579 C2.55421421,2.01853526 1.99542421,2.57505263 1.72232368,3.28010526 C1.54357316,3.76353158 1.44943789,4.27414 1.44406053,4.78952632 C1.39663947,5.65652632 1.39663947,5.88378947 1.39663947,8.05710526 C1.39663947,10.2044737 1.40469211,10.4648421 1.44406053,11.3264737 C1.45207737,11.8366526 1.54615,12.3418211 1.72232368,12.8206842 C1.99582684,13.5252895 2.55451842,14.0813684 3.26037632,14.3515789 C3.73827316,14.5301684 4.24355789,14.6242947 4.75369211,14.6298421 C5.61979737,14.6799474 5.84795526,14.6799474 8.024,14.6799474 C10.2187895,14.6799474 10.4460526,14.6692105 11.2933684,14.6298421 C11.8037263,14.6236684 12.3091632,14.5295421 12.7875789,14.3515789 C13.4894105,14.0790421 14.0445947,13.5242158 14.3175789,12.8224737 C14.4959895,12.3386895 14.5900263,11.8277947 14.5958421,11.3121579 L14.6056842,11.3121579 C14.6441579,10.4567895 14.6441579,10.2286316 14.6441579,8.04278947 C14.6441579,5.85695632 14.6343158,5.627 14.5958421,4.77252632 C14.5877895,4.26293789 14.4936632,3.75836 14.3175789,3.28010526 C14.0452211,2.57736105 13.4899474,2.02147895 12.7875789,1.74831579 C12.3092526,1.57003947 11.8037263,1.47589526 11.2933684,1.47005263 C10.4281579,1.42084211 10.2017895,1.42084211 8.024,1.42084211 Z M8.05442105,12.1898956 C6.38117368,12.1909684 4.87217316,11.1839421 4.23104947,9.63855263 C3.58991684,8.09307368 3.94298,6.31353158 5.12557158,5.12994684 C6.30816316,3.94632632 8.08734737,3.59172421 9.63336316,4.23151474 C11.1793789,4.87130526 12.1876579,6.37947368 12.1881053,8.05263158 C12.1856,10.3351947 10.3368947,12.1854211 8.05442105,12.1898956 Z M8.05442105,5.36663158 C6.57193158,5.36663158 5.37016579,6.56844211 5.37016579,8.05084211 C5.37016579,9.53333158 6.57193158,10.7350526 8.05442105,10.7350526 C9.53682105,10.7350526 10.7386316,9.53333158 10.7386316,8.05084211 C10.7351421,6.56978421 9.53538947,5.37007632 8.05442105,5.36663158 Z M12.3491579,4.72869682 C11.8171474,4.72671579 11.3872263,4.29437 11.3882088,3.76237737 C11.3891947,3.23038474 11.8207263,2.79964053 12.3527368,2.79964053 C12.8846579,2.79964053 13.3161895,3.23037579 13.3172634,3.76236842 C13.3174421,4.01904158 13.2154421,4.26523737 13.0338105,4.44655579 C12.8521789,4.62788316 12.6057684,4.7294 12.3491579,4.72869682 Z" id="Shape"></path>
                </g>
            </g>
        </g>
    </g>
</svg>