<svg id="icon_contact_us" data-name="icon/contact us" xmlns="http://www.w3.org/2000/svg" width="40" height="40" viewBox="0 0 40 40">
  <rect id="Rectangle" width="40" height="40" fill="none"/>
  <g id="Outline" transform="translate(1 5)">
    <path id="Shape" d="M7.916,31a8,8,0,0,1-5.6-2.27A7.67,7.67,0,0,1,0,23.25V10.85a1.533,1.533,0,0,1,.464-1.1,1.606,1.606,0,0,1,2.239,0,1.534,1.534,0,0,1,.464,1.1v12.4a4.6,4.6,0,0,0,1.39,3.289A4.8,4.8,0,0,0,7.916,27.9h19a1.6,1.6,0,0,1,1.12.454,1.526,1.526,0,0,1,0,2.192,1.6,1.6,0,0,1-1.12.454Zm3.167-6.2a4.8,4.8,0,0,1-3.359-1.363A4.6,4.6,0,0,1,6.333,20.15V4.65A4.6,4.6,0,0,1,7.725,1.362,4.8,4.8,0,0,1,11.083,0H33.25a4.8,4.8,0,0,1,3.359,1.362A4.6,4.6,0,0,1,38,4.65v15.5a4.6,4.6,0,0,1-1.391,3.288A4.8,4.8,0,0,1,33.25,24.8Z" fill="#cdbaa7"/>
  </g>
</svg>
