<?xml version="1.0" encoding="UTF-8"?>
<svg width="40px" height="40px" viewBox="0 0 40 40" version="1.1" xmlns="http://www.w3.org/2000/svg" xmlns:xlink="http://www.w3.org/1999/xlink">
    <title>D49A4A15-41F1-41CA-86ED-5F443DD868E8</title>
    <defs>
        <rect id="path-1" x="0" y="0" width="224" height="184" rx="8"></rect>
        <filter x="-8.0%" y="-10.3%" width="118.8%" height="122.8%" filterUnits="objectBoundingBox" id="filter-2">
            <feOffset dx="3" dy="2" in="SourceAlpha" result="shadowOffsetOuter1"></feOffset>
            <feGaussianBlur stdDeviation="6.5" in="shadowOffsetOuter1" result="shadowBlurOuter1"></feGaussianBlur>
            <feColorMatrix values="0 0 0 0 0   0 0 0 0 0   0 0 0 0 0  0 0 0 0.0411812309 0" type="matrix" in="shadowBlurOuter1"></feColorMatrix>
        </filter>
    </defs>
    <g id="Page-1" stroke="none" stroke-width="1" fill="none" fill-rule="evenodd">
        <g id="Academy---Home-1" transform="translate(-752.000000, -1412.000000)">
            <g id="Group-13" transform="translate(240.000000, 1308.000000)">
                <g id="Group-8" transform="translate(496.000000, 88.000000)">
                    <g id="Rectangle">
                        <use fill="black" fill-opacity="1" filter="url(#filter-2)" xlink:href="#path-1"></use>
                        <use fill="#F5FCFF" fill-rule="evenodd" xlink:href="#path-1"></use>
                    </g>
                    <g id="icon/category/it_software" transform="translate(16.000000, 16.000000)">
                        <rect id="Rectangle" fill="#583D72" x="0" y="0" width="40" height="40" rx="8"></rect>
                        <g id="001-software" transform="translate(8.000000, 9.000000)" fill="#FFFFFF" fill-rule="nonzero">
                            <path d="M0,15 L0,15.75 C0,16.9907 0.998103763,18 2.16712797,18 L11.4009776,18 C11.4009776,16.9323 11.6192922,15.9204 12,15 L0,15 Z" id="Path"></path>
                            <path d="M11.4400424,19 L8.65298903,19 L8.65298903,20.3333333 L7.98974178,20.3333333 C6.8908295,20.3333333 6,21.2287556 6,22.3333333 C6,22.7015111 6.29695791,23 6.66324726,23 L14,23 C12.7138309,22.0374222 11.7715776,20.6349333 11.4400424,19 Z" id="Path"></path>
                            <path d="M17.5,17 C17.2241333,17 17,17.2241333 17,17.5 C17,17.7758667 17.2241333,18 17.5,18 C17.7758667,18 18,17.7758667 18,17.5 C18,17.2241333 17.7758667,17 17.5,17 Z" id="Path"></path>
                            <path d="M17.5,12 C14.4623958,12 12,14.4623958 12,17.5 C12,20.5375125 14.4623958,23 17.5,23 C20.5376042,23 23,20.5375125 23,17.5 C23,14.4623958 20.5376042,12 17.5,12 Z M17.5,19.5625 C16.3626917,19.5625 15.4375,18.6373083 15.4375,17.5 C15.4375,16.3626917 16.3626917,15.4375 17.5,15.4375 C18.6373083,15.4375 19.5625,16.3626917 19.5625,17.5 C19.5625,18.6373083 18.6373083,19.5625 17.5,19.5625 Z" id="Shape"></path>
                            <polygon id="Path" points="7.00804383 4 5 5.50140283 6.99847819 7 9 5.49913672"></polygon>
                            <polygon id="Path" points="4 7 4 9.68571912 6 11 6 8.31408762"></polygon>
                            <polygon id="Path" points="8 8.3138143 8 11 10 9.68575087 10 7"></polygon>
                            <path d="M20.9785156,0 L2.06640625,0 C0.951714844,0 0,0.98213245 0,2.13245033 L0,14 L12.2532051,14 C13.4844688,12.3214371 15.416873,11.218543 17.609375,11.218543 C19.801877,11.218543 21.7342813,12.3214371 22.9655449,14 L23,14 L23,2.13245033 C23,0.98213245 22.093207,0 20.9785156,0 Z M10.8711387,9.81288742 L10.8711387,9.81288742 C10.8711387,10.0566821 10.7473789,10.2821192 10.5460391,10.4077483 L7.17689844,12.5087682 C7.04172852,12.5669934 6.96369922,12.6092715 6.828125,12.6092715 C6.69331445,12.6092715 6.61461133,12.5669934 6.47935156,12.5087682 L3.11021094,10.4077483 C2.90887109,10.2821192 2.78515625,10.0566821 2.78515625,9.81288742 L2.78515625,5.61080132 C2.83016797,5.34656291 2.85649219,5.19098675 3.09691406,5.03077483 C3.23262305,4.94028477 6.62786328,2.82109272 6.49188477,2.91422517 C6.70575781,2.78113245 6.97488477,2.78043709 7.18875781,2.91492053 L10.5467129,5.0159404 C10.7563184,5.23850331 10.8441406,5.2417947 10.8613457,5.57241722 C10.8620645,5.586 10.8711387,5.59712583 10.8711387,5.61080132 L10.8711387,9.81288742 Z M18.2832031,8.43708609 L15.5878906,8.43708609 C15.2154434,8.43708609 14.9140625,8.12607285 14.9140625,7.74172185 C14.9140625,7.35737086 15.2154434,7.04635762 15.5878906,7.04635762 L18.2832031,7.04635762 C18.6556504,7.04635762 18.9570313,7.35737086 18.9570313,7.74172185 C18.9570313,8.12607285 18.6556504,8.43708609 18.2832031,8.43708609 Z M18.2832031,5.65562914 L15.5878906,5.65562914 C15.2154434,5.65562914 14.9140625,5.34461589 14.9140625,4.9602649 C14.9140625,4.57591391 15.2154434,4.26490066 15.5878906,4.26490066 L18.2832031,4.26490066 C18.6556504,4.26490066 18.9570313,4.57591391 18.9570313,4.9602649 C18.9570313,5.34461589 18.6556504,5.65562914 18.2832031,5.65562914 Z" id="Shape"></path>
                        </g>
                    </g>
                </g>
            </g>
        </g>
    </g>
</svg>