<?xml version="1.0" encoding="UTF-8"?>
<svg width="16px" height="16px" viewBox="0 0 16 16" version="1.1" xmlns="http://www.w3.org/2000/svg" xmlns:xlink="http://www.w3.org/1999/xlink">
    <title>B9E7CD4D-6B25-453C-8C91-5B84953FB8B9</title>
    <g id="Page-1" stroke="none" stroke-width="1" fill="none" fill-rule="evenodd">
        <g id="Academy---Home-1" transform="translate(-1129.000000, -2352.000000)" fill="#253946" fill-rule="nonzero">
            <g id="Group-14" transform="translate(1048.000000, 2312.000000)">
                <g id="Shape" transform="translate(81.000000, 40.000000)">
                    <path d="M14.8156333,0 L1.18125,0 C0.528123333,0 0,0.515626667 0,1.15312667 L0,14.8437333 C0,15.4812333 0.528123333,16 1.18125,16 L14.8156333,16 C15.4687333,16 16,15.4812667 16,14.8468667 L16,1.15312667 C16,0.515626667 15.4687333,0 14.8156333,0 Z M4.74686667,13.6343667 L2.37187667,13.6343667 L2.37187667,5.99686667 L4.74686667,5.99686667 L4.74686667,13.6343667 Z M3.55936667,4.95626667 C2.79687333,4.95626667 2.18125,4.34063333 2.18125,3.58123333 C2.18125,2.82187333 2.79687333,2.20625 3.55936667,2.20625 C4.31876667,2.20625 4.93436667,2.82187333 4.93436667,3.58123333 C4.93436667,4.3375 4.31876667,4.95626667 3.55936667,4.95626667 Z M13.6343667,13.6343667 L11.2625,13.6343667 L11.2625,9.92186667 C11.2625,9.0375 11.2468667,7.89686667 10.0281333,7.89686667 C8.79373333,7.89686667 8.60623333,8.8625 8.60623333,9.85936667 L8.60623333,13.6343667 L6.2375,13.6343667 L6.2375,5.99686667 L8.5125,5.99686667 L8.5125,7.04063333 L8.54373333,7.04063333 C8.85936667,6.44063333 9.63436667,5.80626667 10.7875,5.80626667 C13.1906333,5.80626667 13.6343667,7.3875 13.6343667,9.44376667 L13.6343667,13.6343667 Z"></path>
                </g>
            </g>
        </g>
    </g>
</svg>