<?xml version="1.0" encoding="UTF-8"?>
<svg width="55px" height="41px" viewBox="0 0 55 41" version="1.1" xmlns="http://www.w3.org/2000/svg" xmlns:xlink="http://www.w3.org/1999/xlink">
    <title>47CA6113-AA1A-4E5C-9785-32A283EC129A@1.5x</title>
    <defs>
        <polygon id="path-1" points="0.0740868208 0.538325499 19.0285714 0.538325499 19.0285714 40.4035546 0.0740868208 40.4035546"></polygon>
        <polygon id="path-3" points="36.0285714 0.538325499 54.9691144 0.538325499 54.9691144 40.4035546 36.0285714 40.4035546"></polygon>
    </defs>
    <g id="Page-1" stroke="none" stroke-width="1" fill="none" fill-rule="evenodd">
        <g id="Academy---Home-1" transform="translate(-692.000000, -112.000000)">
            <g id="Group-7" transform="translate(-101.000000, -134.000000)">
                <g id="Group-3" transform="translate(341.000000, 185.000000)">
                    <g id="Logo" transform="translate(421.000000, 0.000000)">
                        <g id="image/logo" transform="translate(31.000000, 61.000000)">
                            <mask id="mask-2" fill="white">
                                <use xlink:href="#path-1"></use>
                            </mask>
                            <g id="Path"></g>
                            <path d="M18.8325683,40.2072944 C17.896838,39.9697608 17.0053929,39.6416778 16.157413,39.2457885 C16.1463417,39.2230458 16.1352703,39.2007244 16.1135378,39.1779818 L16.1024665,39.1666105 C16.0585913,37.6057951 14.8805224,35.9771732 13.8123465,34.9592318 C13.6692395,34.8236185 13.3612933,34.9027965 13.3830258,35.1403301 C13.537204,36.4071765 14.0325424,37.639909 14.8694511,38.5786726 C13.4379724,37.7527796 12.1500105,36.7125169 10.9719416,35.5021058 C10.9940843,35.468413 11.0051555,35.4229279 11.0051555,35.3778639 C11.0162268,34.3262298 10.87312,33.3082884 10.5208884,32.3130896 C10.2674785,31.6004885 9.9373896,30.6617251 9.25465914,30.2885781 C9.10048096,30.2094003 8.91349891,30.3108996 8.91349891,30.491998 C8.89135636,31.7247305 9.14435616,32.957463 9.69505111,34.0432109 C9.49699773,33.8056772 9.30960556,33.5567722 9.12262352,33.3082884 C7.93348343,31.7019879 6.86571744,29.949124 5.99600493,28.1170823 C6.00707626,28.0943396 6.01773757,28.0602258 6.00707626,28.026533 C5.99600493,27.9924192 5.99600493,27.9587265 5.9849337,27.9246125 C6.01773757,27.9132412 6.06202269,27.8909198 6.08375533,27.8454346 C7.1847351,26.1717487 7.00882439,23.6835411 6.51348599,21.8287568 C6.45812944,21.6139656 6.18298698,21.6025943 6.07309402,21.7723214 C5.06027467,23.2876516 5.04920333,25.0295654 5.37929222,26.725994 C4.79579341,25.312163 4.34433021,23.8418969 4.05811652,22.3375169 C3.93715223,21.7045148 3.84899181,21.0710916 3.80511661,20.4490398 C3.83792048,20.4490398 3.8822058,20.4376685 3.91500967,20.4149259 C5.5334704,19.4083558 6.4363969,17.1690533 6.6893967,15.3256401 C6.72261059,15.0881065 6.46920077,14.8846867 6.2711474,15.0767352 C5.14802496,16.1852258 4.26724112,17.5085074 3.74976016,19.001095 C3.78297405,16.6375505 4.32259767,14.3641341 5.22511405,12.2040095 C5.25832794,12.2381233 5.31327447,12.2608659 5.368221,12.2608659 C7.26182419,12.1703168 9.05660576,10.4625169 10.0140687,8.90170146 C10.1243716,8.72060313 9.9373896,8.46074803 9.7389262,8.52855461 C8.36280396,9.00362199 7.09698481,9.68210911 5.97386237,10.6095013 C7.00882439,8.57361854 8.3300001,6.66239892 9.80494396,4.90953509 L9.81601529,4.90953509 C10.7517457,4.43446771 11.8416541,4.03857811 12.6014738,3.2809131 C13.2509903,2.62474728 13.6032218,1.731469 13.944792,0.883254771 C14.0546851,0.611607116 13.7245961,0.464622642 13.5261327,0.588864582 C13.5044002,0.577493261 13.4933288,0.577493261 13.4601149,0.577493261 C12.612545,0.679413693 11.8637968,1.01886792 11.2474941,1.62954846 C10.5758348,2.30803569 10.2564073,3.2240566 9.76106887,4.0272069 C8.62728512,5.28268194 7.59232321,6.67377024 6.6893967,8.15540765 C6.95387786,6.0630896 7.29503808,3.82378706 6.76648579,1.76516173 C6.70046804,1.51625671 6.40318291,1.51625671 6.28221873,1.69735515 C4.80686474,3.82378706 4.64161523,6.85444744 6.19405831,8.99225067 C5.21404282,10.7337433 4.44356196,12.5998989 3.94822356,14.5001684 C3.90393834,13.6856469 3.83792048,12.8829177 3.74976016,12.0797675 C3.69481363,11.5482648 3.80511661,10.4848383 3.35365341,10.1116914 C3.2654931,10.0325134 3.14452881,10.010192 3.04529706,10.0666274 C1.33908593,11.1296328 2.0763528,15.1786556 3.55170679,16.1287904 C3.56277812,16.1397406 3.57384945,16.1397406 3.59599201,16.1397406 C3.34258208,17.6100067 3.25442177,19.0916442 3.37579607,20.5846529 L3.37579607,20.5960243 C3.37579607,20.6187668 3.37579607,20.6410883 3.38645728,20.6638308 C3.4307425,21.1953336 3.49676026,21.715465 3.59599201,22.2473888 C3.66200977,22.6205357 3.74976016,22.9823114 3.83792048,23.3440869 C3.44181383,22.6542285 2.94647543,21.9643699 2.4839409,21.3650607 C1.94431728,20.6638308 1.30587204,20.1095856 0.44723076,19.8720519 C0.249177384,19.8156166 0.0949992076,19.9967149 0.127803075,20.2001348 C0.546052489,22.2360175 2.04354893,24.0116239 4.02531265,24.5658693 C4.08025907,24.5768194 4.12413427,24.5658693 4.15734816,24.5431267 C4.76298954,26.5676382 5.64336336,28.5352932 6.70046804,30.3677561 C6.2711474,30.0055592 5.8196842,29.6778976 5.33541713,29.40625 C4.68590056,29.0331031 3.77190272,28.4561153 3.01249319,28.7050202 C2.88004755,28.7505054 2.78122593,28.8974899 2.82510112,29.0331031 C3.4746177,31.0913073 5.52239917,32.4145889 7.59232321,31.8380222 L7.60339443,31.8380222 C8.05444761,32.539252 8.5391248,33.2177392 9.0344632,33.8625337 C9.81601529,34.8914252 10.6967991,35.886624 11.6657434,36.7803235 C10.4544605,36.1469003 8.93523145,35.9999158 7.66941219,36.1355289 C7.46028759,36.1582716 7.32784195,36.4071765 7.49309146,36.5764825 C8.86921369,37.9789421 10.9608703,38.5445586 12.799527,37.8096361 C12.8216697,37.7982648 12.8327409,37.7868936 12.8438123,37.7755223 C14.5943086,39.1324966 16.5867335,40.1281165 18.7886932,40.444407 C18.9207287,40.4898922 18.9978178,40.2523585 18.8325683,40.2072944 Z M11.5226365,2.12693736 C11.4894227,2.19516507 11.46769,2.25160043 11.4344761,2.31940701 C11.357387,2.38721358 11.2802979,2.45502016 11.2032089,2.53419817 C11.3024406,2.38721358 11.4123335,2.25160043 11.5226365,2.12693736 Z" id="Shape" fill="#FFD230" fill-rule="nonzero" mask="url(#mask-2)"></path>
                            <mask id="mask-4" fill="white">
                                <use xlink:href="#path-3"></use>
                            </mask>
                            <g id="Path"></g>
                            <path d="M36.287312,40.4671495 C38.4892715,40.150438 40.4816964,39.1552392 42.2321928,37.7982648 C42.2432641,37.8096361 42.2654067,37.8205863 42.276478,37.8319575 C44.1147247,38.5673012 46.2067914,38.0016846 47.5829136,36.599225 C47.7477531,36.429498 47.6157174,36.1810141 47.4065928,36.1582716 C46.1514349,36.0336085 44.6211345,36.1810141 43.4102616,36.8030661 C44.3792059,35.9093666 45.2599897,34.9255391 46.0415419,33.8848551 C46.5368803,33.2291105 47.0104862,32.5502022 47.4726106,31.8603437 L47.4836819,31.8603437 C49.553606,32.4259602 51.6013873,31.1140498 52.2509039,29.0558457 C52.2947791,28.9088612 52.1955475,28.7728268 52.0635118,28.7277628 C51.3041023,28.4674866 50.3901046,29.0444744 49.740588,29.4289926 C49.2563209,29.7115903 48.8048577,30.0283019 48.3755371,30.3900775 C49.4322316,28.5466644 50.3130155,26.5899596 50.9186569,24.5658693 C50.9518708,24.5881907 50.995746,24.599562 51.0506925,24.5881907 C53.0324561,24.0339454 54.5295426,22.258339 54.948202,20.2228774 C54.9920772,20.0304077 54.8268276,19.8497305 54.6287743,19.8947945 C53.7701331,20.1209569 53.1423491,20.6752022 52.5920641,21.3878032 C52.1295296,21.9871126 51.6341912,22.676971 51.2380846,23.3668295 C51.3258348,23.0050539 51.402924,22.6319071 51.480013,22.2697102 C51.5792448,21.7382075 51.6452625,21.2180761 51.6891377,20.6865735 C51.7002091,20.6638308 51.7002091,20.6410883 51.7002091,20.6187668 L51.7002091,20.6073956 C51.8215834,19.1257581 51.7334229,17.6327493 51.480013,16.1624831 C51.4910844,16.1624831 51.5021557,16.1511118 51.5242983,16.1511118 C52.9992422,15.2013983 53.7369191,11.1523753 52.030708,10.0893699 C51.9314763,10.0211422 51.810512,10.0552561 51.7223516,10.134434 C51.2708884,10.5189521 51.3811914,11.5705863 51.3258348,12.1025101 C51.2380846,12.9052392 51.1720668,13.7197608 51.1277816,14.5224899 C50.6324432,12.6112702 49.850891,10.7564858 48.8819467,9.01457208 C50.4343898,6.87719008 50.2691403,3.84610846 48.7937864,1.70872647 C48.6728221,1.52762803 48.3644658,1.52762803 48.3095193,1.77653305 C47.7809669,3.83473725 48.1221272,6.07403978 48.3866083,8.16635784 C47.4836819,6.68514156 46.4487199,5.29405326 45.3038649,4.0272069 C44.8195979,3.2240566 44.5001702,2.30803569 43.8174397,1.62954846 C43.201137,1.01886792 42.4523887,0.679413693 41.6048189,0.577493261 C41.5826762,0.577493261 41.5605336,0.577493261 41.5388011,0.588864582 C41.3403376,0.464622642 41.02132,0.611607116 41.1205517,0.883254771 C41.4617119,1.731469 41.8139435,2.62474728 42.46346,3.2809131 C43.2232796,4.03857811 44.3131881,4.43446771 45.2489185,4.90953509 L45.2599897,4.90953509 C46.7349337,6.66239892 48.0561094,8.57361854 49.0910714,10.6095013 C47.967949,9.68210911 46.7021298,9.00362199 45.3260075,8.52855461 C45.1168829,8.46074803 44.9405622,8.72060313 45.0508651,8.90170146 C45.9976667,10.4511456 47.8031096,12.1703168 49.6967128,12.2608659 C49.7516593,12.2608659 49.7955345,12.2381233 49.8398196,12.2040095 C50.7316748,14.3641341 51.2819597,16.6375505 51.3151736,19.001095 C50.7976926,17.5085074 49.9169088,16.1852258 48.7937864,15.0767352 C48.595733,14.8846867 48.3423232,15.0881065 48.3755371,15.3256401 C48.6285369,17.1690533 49.5314633,19.4083558 51.1499241,20.4149259 C51.1937993,20.4376685 51.2270132,20.4490398 51.2598171,20.4490398 C51.215942,21.0710916 51.1277816,21.7045148 51.0068173,22.3375169 C50.7095323,23.8305256 50.2580691,25.3007918 49.6856415,26.725994 C50.0157305,25.0181941 50.0050692,23.2876516 48.9918398,21.7723214 C48.8819467,21.6025943 48.6068044,21.6139656 48.5514478,21.8287568 C48.0561094,23.6835411 47.8801987,26.18312 48.9811785,27.8454346 C49.0139823,27.8909198 49.0471962,27.9132412 49.0800001,27.9246125 C49.0689288,27.9587265 49.0689288,27.9924192 49.0582676,28.026533 C49.0471962,28.0602258 49.0582676,28.0943396 49.0689288,28.1170823 C48.1992163,29.9604953 47.120379,31.7019879 45.9423102,33.3082884 C45.7553281,33.5567722 45.5679361,33.8056772 45.3698827,34.0432109 C45.9095063,32.957463 46.1625061,31.7247305 46.1514349,30.491998 C46.1514349,30.3108996 45.9644528,30.2094003 45.8102747,30.2885781 C45.1386154,30.6617251 44.8085265,31.6004885 44.5440454,32.3130896 C44.1918138,33.2969171 44.048707,34.3262298 44.0597782,35.3778639 C44.0597782,35.4229279 44.0708495,35.468413 44.0929922,35.5021058 C42.9259946,36.7125169 41.6269614,37.7527796 40.1954826,38.5786726 C41.0323914,37.639909 41.5388011,36.4071765 41.681908,35.1403301 C41.7147118,34.9027965 41.3956942,34.8236185 41.2525873,34.9592318 C40.1844114,35.9771732 39.0067526,37.6057951 38.9624673,39.1666105 L38.951396,39.1779818 C38.9296635,39.2007244 38.9185921,39.2230458 38.9075208,39.2457885 C38.0599509,39.6416778 37.1680958,39.9583894 36.2323654,40.2072944 C36.0449734,40.2523585 36.1220625,40.4898922 36.287312,40.4671495 Z M43.8395823,2.52282685 C43.7624932,2.45502016 43.6854041,2.38721358 43.608315,2.30803569 C43.5755111,2.24022911 43.5533686,2.18379385 43.5205647,2.12693736 C43.6304577,2.25160043 43.7407607,2.38721358 43.8395823,2.52282685 Z" id="Shape" fill="#FFD230" fill-rule="nonzero" mask="url(#mask-4)"></path>
                            <path d="M20.7661688,13.8140355 L20.5312859,13.8140355 C20.2181088,13.8140355 19.9195159,13.9119094 19.6362747,14.1076572 C19.3526498,14.3025152 19.1204535,14.5467552 18.939302,14.8408218 L15.72156,20.5833507 L15.72156,24.857771 C15.7338415,25.1651841 15.8359312,25.4272192 16.0285965,25.6443213 C16.2220295,25.8605337 16.4630531,25.968195 16.7516673,25.968195 L16.951241,25.968195 L16.951241,26.178179 L11.88821,26.178179 L11.88821,25.968195 L12.1062059,25.968195 C12.3825387,25.968195 12.616654,25.8605337 12.8093194,25.6443213 C13.0027523,25.4272192 13.1056095,25.1651841 13.117891,24.857771 L13.117891,20.5833507 L9.91857125,14.8408218 C9.74970121,14.5338535 9.52326188,14.2856098 9.24002071,14.0969801 C8.95639577,13.9083504 8.65204592,13.8140355 8.32658729,13.8140355 L8.1101266,13.8140355 L8.1101266,13.6040515 L13.6060789,13.6040515 L13.6060789,13.8140355 L13.4080404,13.8140355 C13.1785307,13.8140355 13.012731,13.9012323 12.9106414,14.0756258 C12.808168,14.2500193 12.7571232,14.3968302 12.7571232,14.5151686 C12.7571232,14.6339519 12.7809186,14.742503 12.8292767,14.8408218 L15.2333721,19.6597769 L17.6743118,14.8408218 C17.7100048,14.742503 17.7280432,14.6339519 17.7280432,14.5151686 C17.7280432,14.3968302 17.6766146,14.2500193 17.574525,14.0756258 C17.4720516,13.9012323 17.3062519,13.8140355 17.0771259,13.8140355 L16.8975096,13.8140355 L16.8975096,13.6040515 L20.7661688,13.6040515 L20.7661688,13.8140355 Z" id="Path" fill="#FFD230" fill-rule="nonzero"></path>
                            <path d="M21.0772636,26.178179 L21.0772636,25.968195 L21.3255369,25.968195 C21.6411235,25.968195 21.9051325,25.8640928 22.1175634,25.6549985 C22.3308685,25.4450145 22.4375211,25.1865384 22.4375211,24.8791254 L22.4375211,14.9244595 C22.4375211,14.6174914 22.3273717,14.355901 22.107073,14.1396887 C21.8876484,13.9225866 21.6271363,13.8140355 21.3255369,13.8140355 L21.0772636,13.8140355 L21.0772636,13.6040515 L26.8015348,13.6040515 L26.8015348,13.8140355 L26.55501,13.8140355 C26.2389861,13.8140355 25.9710434,13.9190275 25.7507446,14.1290115 C25.5313201,14.3381057 25.4220449,14.6032552 25.4220449,14.9244595 L25.4220449,25.3400225 L27.8942866,25.3400225 C28.7448847,25.3257863 29.4652267,25.0570779 30.0553126,24.5338974 C30.6462728,24.0098272 31.0785654,23.2722138 31.3526276,22.3219471 L31.5799199,22.3219471 L30.7756546,26.178179 L21.0772636,26.178179 Z" id="Path" fill="#FFD230" fill-rule="nonzero"></path>
                            <path d="M40.6486975,13.8270692 L45.8955272,13.8270692 L45.8955272,14.0348156 L45.5784982,14.0348156 C45.2919832,14.0348156 45.0522301,14.1316466 44.8588424,14.3253086 C44.6662474,14.5180902 44.5640055,14.7663298 44.5513243,15.0700269 L44.5513243,24.1316466 C44.5513243,24.9886009 44.6008601,25.6932663 44.7003279,26.2460832 L44.7383714,26.5365762 L44.570346,26.5365762 L36.0010526,18.1386889 L36.0010526,25.0031255 C36.0137337,25.3072628 36.1159756,25.5594635 36.3085707,25.7601677 C36.5019584,25.9599917 36.7417115,26.0594635 37.0282265,26.0594635 L37.3452555,26.0594635 L37.3452555,26.26721 L32.1174475,26.26721 L32.1174475,26.0594635 L32.4170399,26.0594635 C32.7031585,26.0594635 32.9456858,25.9599917 33.1446214,25.7601677 C33.3431608,25.5594635 33.4426286,25.3072628 33.4426286,25.0031255 L33.4426286,15.8798861 C33.4426286,15.0502206 33.3926966,14.3658015 33.293625,13.8270692 L33.2571667,13.5365762 L33.4251921,13.557703 L41.9754638,21.9133368 L41.9754638,15.0911537 C41.9754638,14.7874565 41.87877,14.5356959 41.6853823,14.335872 C41.4919946,14.1351677 41.2526377,14.0348156 40.9673116,14.0348156 L40.6486975,14.0348156 L40.6486975,13.8270692 Z" id="Path" fill="#FFD230" fill-rule="nonzero"></path>
                        </g>
                    </g>
                </g>
            </g>
        </g>
    </g>
</svg>