<?xml version="1.0" encoding="UTF-8"?>
<svg width="118px" height="96px" viewBox="0 0 118 96" version="1.1" xmlns="http://www.w3.org/2000/svg" xmlns:xlink="http://www.w3.org/1999/xlink">
    <title>35E2B2C3-CF6C-4BFF-A8BF-800AE88F487D</title>
    <g id="Page-1" stroke="none" stroke-width="1" fill="none" fill-rule="evenodd">
        <g id="Academy---Login-1" transform="translate(-902.000000, -39.000000)">
            <g id="Group-7" transform="translate(1.000000, 0.000000)">
                <g id="Group-3" transform="translate(480.000000, 39.000000)">
                    <g id="logo" transform="translate(421.000000, 0.000000)">
                        <g id="Group-6" fill-rule="nonzero">
                            <g id="image/logo-1" transform="translate(0.312000, 0.296000)">
                                <path d="M2.28,18.264 L4.968,12.384 L12.216,12.384 L14.928,18.264 L17.112,18.264 L8.928,0 L8.304,0 L0,18.264 L2.28,18.264 Z M11.28,10.296 L5.928,10.296 L8.616,4.368 L11.28,10.296 Z M25.584,18.696 C26.88,18.696 28.084,18.432 29.196,17.904 C30.308,17.376 31.208,16.608 31.896,15.6 L31.896,15.6 L30.36,14.544 C29.112,16.08 27.576,16.848 25.752,16.848 C24.232,16.848 22.976,16.344 21.984,15.336 C20.992,14.328 20.496,13.12 20.496,11.712 C20.496,10.304 21,9.124 22.008,8.172 C23.016,7.22 24.264,6.744 25.752,6.744 C27.64,6.744 29.168,7.504 30.336,9.024 L30.336,9.024 L31.896,8.04 C31.288,7.032 30.444,6.248 29.364,5.688 C28.284,5.128 27.104,4.848 25.824,4.848 C23.664,4.848 21.904,5.532 20.544,6.9 C19.184,8.268 18.504,9.912 18.504,11.832 C18.504,13.752 19.18,15.376 20.532,16.704 C21.884,18.032 23.568,18.696 25.584,18.696 Z M40.8,18.696 C42.656,18.696 44.296,17.912 45.72,16.344 L45.72,16.344 L45.72,18.264 L47.664,18.264 L47.664,5.184 L45.72,5.184 L45.72,7.176 C44.424,5.624 42.82,4.848 40.908,4.848 C38.996,4.848 37.376,5.524 36.048,6.876 C34.72,8.228 34.056,9.852 34.056,11.748 C34.056,13.644 34.716,15.276 36.036,16.644 C37.356,18.012 38.944,18.696 40.8,18.696 Z M40.944,16.848 C39.6,16.848 38.448,16.348 37.488,15.348 C36.528,14.348 36.048,13.168 36.048,11.808 C36.048,10.448 36.52,9.268 37.464,8.268 C38.408,7.268 39.564,6.768 40.932,6.768 C42.3,6.768 43.456,7.252 44.4,8.22 C45.344,9.188 45.816,10.388 45.816,11.82 C45.816,13.252 45.336,14.448 44.376,15.408 C43.416,16.368 42.272,16.848 40.944,16.848 Z M57.204,18.696 C59.068,18.696 60.712,17.912 62.136,16.344 L62.136,16.344 L62.136,18.264 L64.08,18.264 L64.08,0.264 L62.136,0.264 L62.136,7.176 C60.84,5.624 59.236,4.848 57.324,4.848 C55.412,4.848 53.792,5.524 52.464,6.876 C51.136,8.228 50.472,9.856 50.472,11.76 C50.472,13.664 51.128,15.296 52.44,16.656 C53.752,18.016 55.34,18.696 57.204,18.696 Z M57.36,16.848 C56.016,16.848 54.864,16.344 53.904,15.336 C52.944,14.328 52.464,13.148 52.464,11.796 C52.464,10.444 52.932,9.268 53.868,8.268 C54.804,7.268 55.972,6.768 57.372,6.768 C58.772,6.768 59.932,7.252 60.852,8.22 C61.772,9.188 62.232,10.396 62.232,11.844 C62.232,13.292 61.736,14.488 60.744,15.432 C59.752,16.376 58.624,16.848 57.36,16.848 Z M73.656,18.696 C75.08,18.696 76.304,18.364 77.328,17.7 C78.352,17.036 79.24,16.008 79.992,14.616 L79.992,14.616 L78.312,13.752 C77.208,15.816 75.608,16.848 73.512,16.848 C72.28,16.848 71.22,16.412 70.332,15.54 C69.444,14.668 68.96,13.512 68.88,12.072 L68.88,12.072 L80.352,12.072 C80.304,9.832 79.64,8.068 78.36,6.78 C77.08,5.492 75.488,4.848 73.584,4.848 C71.68,4.848 70.084,5.528 68.796,6.888 C67.508,8.248 66.864,9.88 66.864,11.784 C66.864,13.688 67.504,15.316 68.784,16.668 C70.064,18.02 71.688,18.696 73.656,18.696 Z M78.144,10.32 L69.12,10.32 C69.856,7.952 71.344,6.768 73.584,6.768 C74.688,6.768 75.664,7.08 76.512,7.704 C77.36,8.328 77.904,9.2 78.144,10.32 L78.144,10.32 Z M85.032,18.264 L85.032,12.696 C85.032,11.048 85.184,9.868 85.488,9.156 C85.792,8.444 86.26,7.868 86.892,7.428 C87.524,6.988 88.192,6.768 88.896,6.768 C89.6,6.768 90.184,6.952 90.648,7.32 C91.112,7.688 91.412,8.16 91.548,8.736 C91.684,9.312 91.752,10.256 91.752,11.568 L91.752,11.568 L91.752,18.264 L93.696,18.264 L93.696,13.104 C93.696,11.488 93.824,10.268 94.08,9.444 C94.336,8.62 94.792,7.968 95.448,7.488 C96.104,7.008 96.804,6.768 97.548,6.768 C98.292,6.768 98.892,6.948 99.348,7.308 C99.804,7.668 100.1,8.112 100.236,8.64 C100.372,9.168 100.44,10 100.44,11.136 L100.44,11.136 L100.44,18.264 L102.456,18.264 L102.456,11.136 C102.456,8.704 102.016,7.048 101.136,6.168 C100.256,5.288 99.192,4.848 97.944,4.848 C97.032,4.848 96.168,5.088 95.352,5.568 C94.536,6.048 93.856,6.744 93.312,7.656 C92.992,6.76 92.46,6.068 91.716,5.58 C90.972,5.092 90.144,4.848 89.232,4.848 C87.552,4.848 86.152,5.576 85.032,7.032 L85.032,7.032 L85.032,5.184 L83.064,5.184 L83.064,18.264 L85.032,18.264 Z M108.984,22.896 L116.736,5.184 L114.648,5.184 L110.496,14.76 L106.2,5.184 L104.136,5.184 L109.44,17.136 L106.92,22.896 L108.984,22.896 Z" id="Academy" fill="#FFD230"></path>
                                <path d="M20.012,39.864 L20.012,35.188 L20.628,35.188 C21.8133333,35.188 22.6393333,35.139 23.106,35.041 C23.5726667,34.943 23.967,34.775 24.289,34.537 C24.611,34.299 24.8583333,33.998 25.031,33.634 C25.2036667,33.27 25.29,32.8593333 25.29,32.402 C25.29,31.9446667 25.2013333,31.534 25.024,31.17 C24.8466667,30.806 24.6016667,30.5026667 24.289,30.26 C23.9763333,30.0173333 23.6333333,29.8493333 23.26,29.756 C22.8866667,29.6626667 22.1026667,29.616 20.908,29.616 L20.908,29.616 L18.808,29.616 L18.808,39.864 L20.012,39.864 Z M21.8373958,34.0271667 L21.608,34.026 L20.012,34.026 L20.012,30.792 L21.692,30.792 C23.26,30.792 24.044,31.324 24.044,32.388 C24.044,32.864 23.8736667,33.2606667 23.533,33.578 C23.1923333,33.8953333 22.5506667,34.0446667 21.608,34.026 L21.8373958,34.0271667 Z M30.568,40.116 C31.688,40.116 32.6283333,39.7216667 33.389,38.933 C34.1496667,38.1443333 34.53,37.1946667 34.53,36.084 C34.53,34.9733333 34.145,34.0213333 33.375,33.228 C32.605,32.4346667 31.6693333,32.038 30.568,32.038 C29.4573333,32.038 28.517,32.4346667 27.747,33.228 C26.977,34.0213333 26.592,34.9733333 26.592,36.084 C26.592,37.1946667 26.9746667,38.1443333 27.74,38.933 C28.5053333,39.7216667 29.448,40.116 30.568,40.116 Z M30.568,39.01 C29.7653333,39.01 29.098,38.73 28.566,38.17 C28.034,37.61 27.768,36.9286667 27.768,36.126 C27.768,35.3233333 28.0433333,34.6303333 28.594,34.047 C29.1446667,33.4636667 29.8003333,33.172 30.561,33.172 C31.3216667,33.172 31.9796667,33.4636667 32.535,34.047 C33.0903333,34.6303333 33.368,35.321 33.368,36.119 C33.368,36.917 33.095,37.5983333 32.549,38.163 C32.003,38.7276667 31.3426667,39.01 30.568,39.01 Z M38.688,40.116 L40.942,34.684 L43.182,40.116 L43.476,40.116 L46.738,32.234 L45.534,32.234 L43.336,37.736 L41.082,32.234 L40.802,32.234 L38.534,37.722 L36.378,32.234 L35.188,32.234 L38.394,40.116 L38.688,40.116 Z M51.358,40.116 C52.1886667,40.116 52.9026667,39.9223333 53.5,39.535 C54.0973333,39.1476667 54.6153333,38.548 55.054,37.736 L55.054,37.736 L54.074,37.232 C53.43,38.436 52.4966667,39.038 51.274,39.038 C50.5553333,39.038 49.937,38.7836667 49.419,38.275 C48.901,37.7663333 48.6186667,37.092 48.572,36.252 L48.572,36.252 L55.264,36.252 C55.236,34.9453333 54.8486667,33.9163333 54.102,33.165 C53.3553333,32.4136667 52.4266667,32.038 51.316,32.038 C50.2053333,32.038 49.2743333,32.4346667 48.523,33.228 C47.7716667,34.0213333 47.396,34.9733333 47.396,36.084 C47.396,37.1946667 47.7693333,38.1443333 48.516,38.933 C49.2626667,39.7216667 50.21,40.116 51.358,40.116 Z M53.976,35.23 L48.712,35.23 C49.1413333,33.8486667 50.0093333,33.158 51.316,33.158 C51.96,33.158 52.5293333,33.34 53.024,33.704 C53.5186667,34.068 53.836,34.5766667 53.976,35.23 L53.976,35.23 Z M57.518,39.864 L57.518,37.246 C57.518,36.042 57.5763333,35.209 57.693,34.747 C57.8096667,34.285 57.9846667,33.9116667 58.218,33.627 C58.4513333,33.3423333 58.7126667,33.2 59.002,33.2 C59.1513333,33.2 59.3053333,33.242 59.464,33.326 L59.464,33.326 L60.066,32.346 C59.6833333,32.1406667 59.3403333,32.038 59.037,32.038 C58.7336667,32.038 58.463,32.122 58.225,32.29 C57.987,32.458 57.7513333,32.7146667 57.518,33.06 L57.518,33.06 L57.518,32.234 L56.342,32.234 L56.342,39.864 L57.518,39.864 Z M64.672,40.116 C65.5026667,40.116 66.2166667,39.9223333 66.814,39.535 C67.4113333,39.1476667 67.9293333,38.548 68.368,37.736 L68.368,37.736 L67.388,37.232 C66.744,38.436 65.8106667,39.038 64.588,39.038 C63.8693333,39.038 63.251,38.7836667 62.733,38.275 C62.215,37.7663333 61.9326667,37.092 61.886,36.252 L61.886,36.252 L68.578,36.252 C68.55,34.9453333 68.1626667,33.9163333 67.416,33.165 C66.6693333,32.4136667 65.7406667,32.038 64.63,32.038 C63.5193333,32.038 62.5883333,32.4346667 61.837,33.228 C61.0856667,34.0213333 60.71,34.9733333 60.71,36.084 C60.71,37.1946667 61.0833333,38.1443333 61.83,38.933 C62.5766667,39.7216667 63.524,40.116 64.672,40.116 Z M67.29,35.23 L62.026,35.23 C62.4553333,33.8486667 63.3233333,33.158 64.63,33.158 C65.274,33.158 65.8433333,33.34 66.338,33.704 C66.8326667,34.068 67.15,34.5766667 67.29,35.23 L67.29,35.23 Z M73.765,40.116 C74.8523333,40.116 75.8113333,39.6586667 76.642,38.744 L76.642,38.744 L76.642,39.864 L77.776,39.864 L77.776,29.364 L76.642,29.364 L76.642,33.396 C75.886,32.4906667 74.9503333,32.038 73.835,32.038 C72.7196667,32.038 71.7746667,32.4323333 71,33.221 C70.2253333,34.0096667 69.838,34.9593333 69.838,36.07 C69.838,37.1806667 70.2206667,38.1326667 70.986,38.926 C71.7513333,39.7193333 72.6776667,40.116 73.765,40.116 Z M73.856,39.038 C73.072,39.038 72.4,38.744 71.84,38.156 C71.28,37.568 71,36.8796667 71,36.091 C71,35.3023333 71.273,34.6163333 71.819,34.033 C72.365,33.4496667 73.0463333,33.158 73.863,33.158 C74.6796667,33.158 75.3563333,33.4403333 75.893,34.005 C76.4296667,34.5696667 76.698,35.2743333 76.698,36.119 C76.698,36.9636667 76.4086667,37.6613333 75.83,38.212 C75.2513333,38.7626667 74.5933333,39.038 73.856,39.038 Z M87.289,40.116 C88.3856667,40.116 89.3213333,39.7193333 90.096,38.926 C90.8706667,38.1326667 91.258,37.1806667 91.258,36.07 C91.258,34.9593333 90.8776667,34.0096667 90.117,33.221 C89.3563333,32.4323333 88.4206667,32.038 87.31,32.038 C86.1993333,32.038 85.2473333,32.4766667 84.454,33.354 L84.454,33.354 L84.454,29.364 L83.32,29.364 L83.32,39.864 L84.454,39.864 L84.454,38.688 C85.2473333,39.64 86.1923333,40.116 87.289,40.116 Z M87.24,38.996 C86.4466667,38.996 85.7746667,38.7066667 85.224,38.128 C84.6733333,37.5493333 84.398,36.8423333 84.398,36.007 C84.398,35.1716667 84.671,34.4786667 85.217,33.928 C85.763,33.3773333 86.442,33.102 87.254,33.102 C88.066,33.102 88.7426667,33.396 89.284,33.984 C89.8253333,34.572 90.096,35.2603333 90.096,36.049 C90.096,36.8376667 89.8183333,37.526 89.263,38.114 C88.7076667,38.702 88.0333333,38.996 87.24,38.996 Z M94.786,42.566 L99.308,32.234 L98.09,32.234 L95.668,37.82 L93.162,32.234 L91.958,32.234 L95.052,39.206 L93.582,42.566 L94.786,42.566 Z" id="Poweredby" fill="#FFFFFF"></path>
                            </g>
                        </g>
                        <g transform="translate(21.049428, 49.049428)" fill="#FFFFFF">
                            <path d="M1.28227668,3.60253245 C3.46569345,3.48127488 4.97082344,4.30674333 5.79766663,6.0789378 C6.43619747,7.44751749 8.01781038,10.81111 10.5425054,16.1697153 C12.1755012,19.6357135 13.0222906,23.4197864 13.0222906,27.2512116 L13.0222906,33.1712775 L13.0222906,33.1712775 C13.1077808,35.9924665 11.4911068,37.4105688 8.17226862,37.4255844 C8.17226862,37.4587716 8.17226862,37.5457993 8.17226862,37.6866675 L25.2530684,37.6866675 L25.2530684,37.4255844 C21.9607952,37.2206418 20.2920772,35.8025396 20.2469145,33.1712775 C20.2502717,30.6278062 20.2506617,27.0402023 20.2480844,22.408466 C20.2473964,21.1685191 19.9904978,19.9420903 19.4935036,18.8061037 L13.9253686,6.0789378 L13.9253686,6.0789378 C13.0857107,4.27278182 10.9785287,3.36970383 7.60382262,3.36970383 C4.22911651,3.36970383 2.12193453,3.36970383 1.28227668,3.36970383 L1.28227668,3.60253245 Z" id="Path"></path>
                            <path d="M21.8448968,3.25042227 L21.8448968,3.48325089 C24.2078806,3.86957918 24.9542047,5.40499646 24.083869,8.08950274 C24.1206638,8.08950274 24.1674547,8.08950274 24.2242418,8.08950274 C26.2628313,5.01866818 28.9066528,3.48325089 32.155706,3.48325089 C32.155706,3.37312421 32.155706,3.29551467 32.155706,3.25042227 L21.8448968,3.25042227 Z" id="Combined-Shape"></path>
                            <path d="M31.0838504,8.78817178 L31.0838504,32.2681996 C31.1575649,35.3947234 29.6524349,37.1087108 26.5684604,37.4101618 C26.5684604,37.4974787 26.5684604,37.5896472 26.5684604,37.6866675 L43.1755582,37.6866675 L43.1755582,37.4101618 C39.9308356,37.2481024 38.3084743,35.534115 38.3084743,32.2681996 C38.3084743,29.0022841 38.3084743,21.1756082 38.3084743,8.78817178 L31.0838504,8.78817178 Z" id="Path-3"></path>
                            <path d="M39.2115523,3.36970383 L39.2115523,3.68999149 C41.0335843,3.47646638 42.8397402,4.87483381 44.6300203,7.88509378 C46.1491004,10.9469136 50.6644903,20.185986 58.1761901,35.6023112 C59.0873612,36.9918821 60.4480911,37.6866675 62.2583799,37.6866675 C64.0686687,37.6866675 66.6212767,37.6866675 69.916204,37.6866675 L69.916204,37.4107253 C67.4259686,37.4751484 65.7219664,36.3630251 64.8041973,34.0743555 C63.7031554,31.7753692 59.3052618,22.7445893 51.6105166,6.98201579 C50.624007,4.57380781 48.5982008,3.36970383 45.5330983,3.36970383 C42.4679957,3.36970383 40.3608137,3.36970383 39.2115523,3.36970383 Z" id="Path-4"></path>
                            <path d="M67.8972263,8.14167589 C67.8052814,5.49779564 66.1962461,4.03012882 63.0701203,3.73867543 L63.0701203,3.73867543 L63.0701203,3.4293446 L72.5887207,3.4293446 L72.5887207,3.4293446 L72.5887207,3.73867543 C69.7717351,3.73867543 68.2694041,5.28753992 68.0817275,8.3852689 L68.0817275,8.3852689 L68.0817275,20.8528749 L67.9014056,20.8528749 L67.9014056,8.3852689 Z" id="Combined-Shape"></path>
                            <path d="M51.1773357,32.8636797 L50.8819281,32.8636797 C50.3775867,35.952152 48.2357589,37.4963881 44.4564448,37.4963881 C44.4564448,37.5876314 44.4564448,37.6510579 44.4564448,37.6866675 L51.1773357,37.6866675 L51.1773357,32.8636797 Z" id="Path-6"></path>
                            <g id="Group-7" transform="translate(1.273246, 43.004292)" fill-rule="nonzero">
                                <path d="M1.32895076,3.41380855 L1.32895076,0.292886528 L2.39599152,0.292886528 L2.39599152,0.0528156034 L0,0.0528156034 L0,0.292886528 L1.06704076,0.292886528 L1.06704076,3.41380855 L1.32895076,3.41380855 Z M3.18657171,3.41380855 L3.18657171,1.80533335 L5.16059711,1.80533335 L5.16059711,3.41380855 L5.41765693,3.41380855 L5.41765693,0.0528156034 L5.16059711,0.0528156034 L5.16059711,1.56526243 L3.18657171,1.56526243 L3.18657171,0.0528156034 L2.92951189,0.0528156034 L2.92951189,3.41380855 L3.18657171,3.41380855 Z M8.21621382,3.41380855 L8.21621382,3.17373762 L6.51864898,3.17373762 L6.51864898,1.83894328 L8.07070826,1.83894328 L8.07070826,1.59887236 L6.51864898,1.59887236 L6.51864898,0.292886528 L8.19196289,0.292886528 L8.19196289,0.0528156034 L6.26158916,0.0528156034 L6.26158916,3.41380855 L8.21621382,3.41380855 Z M11.2621302,3.41380855 L11.2621302,2.03100002 L12.4989274,0.0528156034 L12.2079163,0.0528156034 L11.1360253,1.78612768 L10.0592842,0.0528156034 L9.7682731,0.0528156034 L11.0050703,2.03100002 L11.0050703,3.41380855 L11.2621302,3.41380855 Z M14.5263048,3.46662415 C15.5060423,3.46662415 16.2772217,2.69359578 16.2772217,1.73331208 C16.2772217,0.773028378 15.5060423,4.18019845e-15 14.5263048,4.18019845e-15 C13.5465674,4.18019845e-15 12.775388,0.773028378 12.775388,1.73331208 C12.775388,2.69359578 13.5465674,3.46662415 14.5263048,3.46662415 Z M14.5263048,3.22175181 C13.6872228,3.22175181 13.0324478,2.55915606 13.0324478,1.73331208 C13.0324478,0.907468095 13.6872228,0.244872343 14.5263048,0.244872343 C15.3653869,0.244872343 16.0201619,0.907468095 16.0201619,1.73331208 C16.0201619,2.55915606 15.3653869,3.22175181 14.5263048,3.22175181 Z M18.1202921,3.46662415 C18.8672206,3.46662415 19.3667897,3.00088656 19.3667897,2.29027662 L19.3667897,0.0528156034 L19.1097299,0.0528156034 L19.1097299,2.29027662 C19.1097299,2.83763833 18.7653667,3.22175181 18.1202921,3.22175181 C17.4800677,3.22175181 17.1357045,2.83763833 17.1357045,2.29027662 L17.1357045,0.0528156034 L16.8786447,0.0528156034 L16.8786447,2.29027662 C16.8786447,3.00088656 17.3733636,3.46662415 18.1202921,3.46662415 Z M20.4192799,3.41380855 L20.4192799,0.523354616 L22.4224064,3.41380855 L22.6503651,3.41380855 L22.6503651,0.0528156034 L22.3933053,0.0528156034 L22.3933053,2.94326954 L20.3853286,0.0528156034 L20.1622201,0.0528156034 L20.1622201,3.41380855 L20.4192799,3.41380855 Z M25.0851581,3.46662415 C26.0988468,3.46662415 26.7245207,2.78962415 26.7245207,1.97818442 L26.7245207,1.84854612 L25.0221057,1.84854612 L25.0221057,2.08861705 L26.4626107,2.08861705 C26.4092587,2.71760287 25.9096896,3.22175181 25.0851581,3.22175181 C24.1733233,3.22175181 23.5573498,2.55915606 23.5573498,1.73331208 C23.5573498,0.907468095 24.1733233,0.244872343 25.0657574,0.244872343 C25.5992778,0.244872343 26.0745959,0.523354616 26.2977044,0.945879443 L26.5256631,0.811439726 C26.2443524,0.326496458 25.6962815,4.18019845e-15 25.0657574,4.18019845e-15 C24.0326679,4.18019845e-15 23.30029,0.773028378 23.30029,1.73331208 C23.30029,2.69359578 24.0326679,3.46662415 25.0851581,3.46662415 Z" id="THEYOUNG"></path>
                                <path d="M31.2000736,3.36263268 L31.2000736,3.12616062 L29.6225023,3.12616062 L29.6225023,0.052023853 L29.3691348,0.052023853 L29.3691348,3.36263268 L31.2000736,3.36263268 Z M33.6524799,3.36263268 L33.6524799,3.12616062 L31.9792982,3.12616062 L31.9792982,1.81137597 L33.5090644,1.81137597 L33.5090644,1.57490391 L31.9792982,1.57490391 L31.9792982,0.288495912 L33.6285773,0.288495912 L33.6285773,0.052023853 L31.7259307,0.052023853 L31.7259307,3.36263268 L33.6524799,3.36263268 Z M34.1974591,3.36263268 L34.5225344,2.52079215 L36.2004966,2.52079215 L36.5255719,3.36263268 L36.793281,3.36263268 L35.4977603,0.052023853 L35.2300512,0.052023853 L33.92975,3.36263268 L34.1974591,3.36263268 Z M36.1096668,2.28432009 L34.6181448,2.28432009 L35.3639058,0.35943753 L36.1096668,2.28432009 Z M38.5381705,3.36263268 C39.4608107,3.36263268 40.1157418,2.62011041 40.1157418,1.70732827 C40.1157418,0.794546118 39.4608107,0.052023853 38.5381705,0.052023853 L37.280894,0.052023853 L37.280894,3.36263268 L38.5381705,3.36263268 Z M38.5381705,3.12616062 L37.5342615,3.12616062 L37.5342615,0.288495912 L38.5381705,0.288495912 C39.3269562,0.288495912 39.8671548,0.92224103 39.8671548,1.70732827 C39.8671548,2.4924155 39.3269562,3.12616062 38.5381705,3.12616062 Z M42.6828806,3.36263268 L42.6828806,3.12616062 L41.0096989,3.12616062 L41.0096989,1.81137597 L42.539465,1.81137597 L42.539465,1.57490391 L41.0096989,1.57490391 L41.0096989,0.288495912 L42.658978,0.288495912 L42.658978,0.052023853 L40.7563314,0.052023853 L40.7563314,3.36263268 L42.6828806,3.36263268 Z M43.5577156,3.36263268 L43.5577156,2.00528306 L44.6142103,2.00528306 L45.4173375,3.36263268 L45.7089492,3.36263268 L44.8771389,1.97217697 C45.3026051,1.85867038 45.6133388,1.48031509 45.6133388,1.03101818 C45.6133388,0.491861883 45.1687505,0.052023853 44.6237714,0.052023853 L43.3043481,0.052023853 L43.3043481,3.36263268 L43.5577156,3.36263268 Z M44.6237714,1.768811 L43.5577156,1.768811 L43.5577156,0.288495912 L44.6237714,0.288495912 C45.0301155,0.288495912 45.3599713,0.619556794 45.3599713,1.03101818 C45.3599713,1.43775012 45.0301155,1.768811 44.6237714,1.768811 Z M47.2578374,3.41465653 C47.9223296,3.41465653 48.3573568,3.055219 48.3573568,2.50660382 C48.3573568,1.95553634 47.8785967,1.76408805 47.3138042,1.57751264 L47.2701955,1.56316431 C47.2629014,1.56077254 47.2555947,1.55838006 47.2482764,1.55598615 C46.7702245,1.39991459 46.4308076,1.27694912 46.4308076,0.879676059 C46.4308076,0.510779647 46.7224193,0.2412015 47.1861296,0.2412015 C47.6641815,0.2412015 47.9223296,0.515509088 48.0466231,0.813463883 L48.2617464,0.695227853 C48.0992088,0.312143118 47.7358893,2.09009922e-15 47.1861296,2.09009922e-15 C46.6172478,2.09009922e-15 46.1726596,0.345249206 46.1726596,0.889134942 C46.1726596,1.44448957 46.6376734,1.60990104 47.1712767,1.78177505 L47.212988,1.79518785 C47.2199608,1.79742781 47.2269433,1.7996706 47.2339348,1.80191709 C47.7454504,1.96271809 48.0992088,2.11406021 48.0992088,2.51133327 C48.0992088,2.88968856 47.8171581,3.17345503 47.2578374,3.17345503 C46.7080777,3.17345503 46.3686608,2.90387688 46.2539284,2.50660382 L46.0340245,2.63429874 C46.1870011,3.10251341 46.6315894,3.41465653 47.2578374,3.41465653 Z M50.5085904,3.36263268 L50.5085904,0.515509088 L52.4829448,3.36263268 L52.7076292,3.36263268 L52.7076292,0.052023853 L52.4542617,0.052023853 L52.4542617,2.89914744 L50.4751268,0.052023853 L50.2552229,0.052023853 L50.2552229,3.36263268 L50.5085904,3.36263268 Z M55.4659888,3.36263268 L55.4659888,3.12616062 L53.7928071,3.12616062 L53.7928071,1.81137597 L55.3225732,1.81137597 L55.3225732,1.57490391 L53.7928071,1.57490391 L53.7928071,0.288495912 L55.4420862,0.288495912 L55.4420862,0.052023853 L53.5394396,0.052023853 L53.5394396,3.36263268 L55.4659888,3.36263268 Z M57.0913653,3.36263268 L57.0913653,0.288495912 L58.1430795,0.288495912 L58.1430795,0.052023853 L55.781503,0.052023853 L55.781503,0.288495912 L56.8332173,0.288495912 L56.8332173,3.36263268 L57.0913653,3.36263268 Z M59.6871872,3.36263268 L60.6289495,0.378355294 L61.5659312,3.36263268 L61.8718844,3.36263268 L62.8423298,0.052023853 L62.5746207,0.052023853 L61.7141273,3.02684235 L60.7771455,0.052023853 L60.4759728,0.052023853 L59.5437716,3.02684235 L58.6784976,0.052023853 L58.4107886,0.052023853 L59.381234,3.36263268 L59.6871872,3.36263268 Z M64.9505388,3.41465653 C65.9162036,3.41465653 66.6763062,2.6532165 66.6763062,1.70732827 C66.6763062,0.76144003 65.9162036,2.09009922e-15 64.9505388,2.09009922e-15 C63.9848739,2.09009922e-15 63.2247713,0.76144003 63.2247713,1.70732827 C63.2247713,2.6532165 63.9848739,3.41465653 64.9505388,3.41465653 Z M64.9505388,3.17345503 C64.1235089,3.17345503 63.4781389,2.52079215 63.4781389,1.70732827 C63.4781389,0.893864383 64.1235089,0.2412015 64.9505388,0.2412015 C65.7775686,0.2412015 66.4229387,0.893864383 66.4229387,1.70732827 C66.4229387,2.52079215 65.7775686,3.17345503 64.9505388,3.17345503 Z M67.5702632,3.36263268 L67.5702632,2.00528306 L68.626758,2.00528306 L69.4298852,3.36263268 L69.7214969,3.36263268 L68.8896865,1.97217697 C69.3151527,1.85867038 69.6258865,1.48031509 69.6258865,1.03101818 C69.6258865,0.491861883 69.1812982,0.052023853 68.636319,0.052023853 L67.3168957,0.052023853 L67.3168957,3.36263268 L67.5702632,3.36263268 Z M68.636319,1.768811 L67.5702632,1.768811 L67.5702632,0.288495912 L68.636319,0.288495912 C69.0426631,0.288495912 69.372519,0.619556794 69.372519,1.03101818 C69.372519,1.43775012 69.0426631,1.768811 68.636319,1.768811 Z M70.5007215,3.36263268 L70.5007215,1.73097547 L72.1786837,3.36263268 L72.5181006,3.36263268 L70.7779916,1.66003385 L72.4702954,0.052023853 L72.1308785,0.052023853 L70.5007215,1.59382168 L70.5007215,0.052023853 L70.247354,0.052023853 L70.247354,3.36263268 L70.5007215,3.36263268 Z" id="LEADERSNETWORK"></path>
                            </g>
                            <polygon id="Path-7" fill-rule="nonzero" points="76.041989 0 76.041989 44.5516594 74.044023 44.5516594 74.044023 44.3727371 75.8630667 44.3727371 75.8630667 0.178922327 0.178922327 0.178922327 0.178922327 44.3727371 1.04371357 44.3727371 1.04371357 44.5516594 0 44.5516594 0 0"></polygon>
                        </g>
                    </g>
                </g>
            </g>
        </g>
    </g>
</svg>