<?xml version="1.0" encoding="UTF-8"?>
<svg width="40px" height="40px" viewBox="0 0 40 40" version="1.1" xmlns="http://www.w3.org/2000/svg" xmlns:xlink="http://www.w3.org/1999/xlink">
    <title>A9FCC1E7-DCE0-4FF5-ACC1-728C70067597</title>
    <defs>
        <rect id="path-1" x="0" y="0" width="224" height="184" rx="8"></rect>
        <filter x="-8.0%" y="-10.3%" width="118.8%" height="122.8%" filterUnits="objectBoundingBox" id="filter-2">
            <feOffset dx="3" dy="2" in="SourceAlpha" result="shadowOffsetOuter1"></feOffset>
            <feGaussianBlur stdDeviation="6.5" in="shadowOffsetOuter1" result="shadowBlurOuter1"></feGaussianBlur>
            <feColorMatrix values="0 0 0 0 0   0 0 0 0 0   0 0 0 0 0  0 0 0 0.0411812309 0" type="matrix" in="shadowBlurOuter1"></feColorMatrix>
        </filter>
    </defs>
    <g id="Page-1" stroke="none" stroke-width="1" fill="none" fill-rule="evenodd">
        <g id="Academy---Home-1" transform="translate(-256.000000, -1620.000000)">
            <g id="Group-13" transform="translate(240.000000, 1308.000000)">
                <g id="Group-8" transform="translate(0.000000, 296.000000)">
                    <g id="Rectangle">
                        <use fill="black" fill-opacity="1" filter="url(#filter-2)" xlink:href="#path-1"></use>
                        <use fill="#F5FCFF" fill-rule="evenodd" xlink:href="#path-1"></use>
                    </g>
                    <g id="icon/category/marketing" transform="translate(16.000000, 16.000000)">
                        <rect id="Rectangle" fill="#C54B36" x="0" y="0" width="40" height="40" rx="8"></rect>
                        <g id="001-target" transform="translate(8.000000, 8.000000)" fill="#F0F4F6" fill-rule="nonzero">
                            <path d="M22.9443233,2.66642583 C22.83085,2.3908598 22.5611667,2.21107875 22.2634834,2.21107875 L20.789804,2.21107875 L20.789804,0.737463595 C20.789804,0.439793334 20.6100151,0.17012176 20.334437,0.0566533931 C20.0603326,-0.0582885891 19.7434916,0.00507686265 19.5312817,0.21580383 L17.3207626,2.42622656 C17.1837104,2.56474639 17.1056054,2.75189551 17.1056054,2.94788633 L17.1056054,4.85327073 L9.21552562,12.7415327 C8.92815813,13.0288876 8.92815813,13.4960236 9.21552562,13.7833786 C9.3599462,13.9277929 9.54857717,14 9.73720814,14 C9.92583911,14 10.1144701,13.9277929 10.2588907,13.7848522 L18.1474967,5.89511664 L20.0529642,5.89511664 C20.2489636,5.89511664 20.4361209,5.81701504 20.5746468,5.67996883 L22.7851659,3.46954609 C22.9944284,3.25734551 23.0577966,2.94199187 22.9443233,2.66642583 Z" id="Path"></path>
                            <path d="M15.532,10.6825 L12.9745,13.249 C12.847,14.788 11.572,16 10,16 C8.3425,16 7,14.6575 7,13 C7,11.3965 8.2615,10.0975 9.844,10.015 L12.3625,7.4875 C11.6365,7.1755 10.84,7 10,7 C6.691,7 4,9.691 4,13 C4,16.309 6.691,19 10,19 C13.309,19 16,16.309 16,13 C16,12.178 15.832,11.3965 15.532,10.6825 Z" id="Path"></path>
                            <path d="M18.4242857,7.62714286 L16.3185714,9.74 C16.8271429,10.7214286 17.1428571,11.82 17.1428571,13 C17.1428571,16.9385714 13.9385714,20.1428571 10,20.1428571 C6.06142857,20.1428571 2.85714286,16.9385714 2.85714286,13 C2.85714286,9.06142857 6.06142857,5.85714286 10,5.85714286 C11.1957143,5.85714286 12.3057143,6.18 13.2971429,6.70142857 L15.4,4.59142857 C13.8414286,3.58857143 11.99,3 10,3 C4.47714286,3 0,7.47714286 0,13 C0,18.5228571 4.47714286,23 10,23 C15.5228571,23 20,18.5228571 20,13 C20,11.02 19.4171429,9.18 18.4242857,7.62714286 Z" id="Path"></path>
                        </g>
                    </g>
                </g>
            </g>
        </g>
    </g>
</svg>