<?xml version="1.0" encoding="UTF-8"?>
<svg width="40px" height="40px" viewBox="0 0 40 40" version="1.1" xmlns="http://www.w3.org/2000/svg" xmlns:xlink="http://www.w3.org/1999/xlink">
    <title>D8E05E1F-B5AC-4207-B0C5-CF60F77F30AB</title>
    <defs>
        <rect id="path-1" x="0" y="0" width="224" height="184" rx="8"></rect>
        <filter x="-8.0%" y="-10.3%" width="118.8%" height="122.8%" filterUnits="objectBoundingBox" id="filter-2">
            <feOffset dx="3" dy="2" in="SourceAlpha" result="shadowOffsetOuter1"></feOffset>
            <feGaussianBlur stdDeviation="6.5" in="shadowOffsetOuter1" result="shadowBlurOuter1"></feGaussianBlur>
            <feColorMatrix values="0 0 0 0 0   0 0 0 0 0   0 0 0 0 0  0 0 0 0.0411812309 0" type="matrix" in="shadowBlurOuter1"></feColorMatrix>
        </filter>
    </defs>
    <g id="Page-1" stroke="none" stroke-width="1" fill="none" fill-rule="evenodd">
        <g id="Academy---Home-1" transform="translate(-504.000000, -1620.000000)">
            <g id="Group-13" transform="translate(240.000000, 1308.000000)">
                <g id="Group-8" transform="translate(248.000000, 296.000000)">
                    <g id="Rectangle">
                        <use fill="black" fill-opacity="1" filter="url(#filter-2)" xlink:href="#path-1"></use>
                        <use fill="#F5FCFF" fill-rule="evenodd" xlink:href="#path-1"></use>
                    </g>
                    <g id="icon/category/photo" transform="translate(16.000000, 16.000000)">
                        <rect id="Rectangle" fill="#583D72" x="0" y="0" width="40" height="40" rx="8"></rect>
                        <g id="001-digital-photography" transform="translate(8.000000, 11.000000)" fill="#FFFFFF" fill-rule="nonzero">
                            <path d="M21.2109263,3.27855976 L18.1351215,3.27855976 L17.5773088,1.42613546 C17.3289462,0.601262948 16.569249,0.0366752988 15.707739,0.0366752988 L11.5732331,0.0366752988 C10.7117231,0.0366752988 9.95210159,0.601262948 9.70366335,1.42613546 L9.1458506,3.27859761 L1.95249602,3.27859761 C0.874151394,3.27855976 0,4.15271116 0,5.23098008 L0,17.0108665 C0,18.0892112 0.874151394,18.9633625 1.95249602,18.9633625 L21.2109263,18.9633625 C22.2892709,18.9633625 23.1634223,18.0892112 23.1634223,17.0108665 L23.1634223,5.23098008 C23.1634223,4.15271116 22.2891952,3.27855976 21.2109263,3.27855976 Z M13.6269363,16.2251673 C10.751502,16.2251673 8.42036853,13.8940717 8.42036853,11.0185996 C8.42036853,8.14312749 10.7514641,5.81203187 13.6269363,5.81203187 C16.5024084,5.81203187 18.8335797,8.14312749 18.8335797,11.0185996 C18.8335797,13.8940717 16.5024462,16.2251673 13.6269363,16.2251673 Z" id="Shape"></path>
                            <path d="M13.6269363,7.76452789 C11.8298088,7.76452789 10.3728645,9.22147211 10.3728645,11.0185996 C10.3728645,12.8157271 11.8298088,14.272747 13.6269363,14.272747 C15.4240637,14.272747 16.8810837,12.8157271 16.8810837,11.0185996 C16.8810837,9.22147211 15.4241016,7.76452789 13.6269363,7.76452789 Z M15.8932351,10.8914661 C15.5866992,11.198002 14.8230279,10.9312829 14.1874363,10.2957669 C13.5519203,9.6601753 13.2852769,8.89650398 13.5918127,8.58996813 C13.8983486,8.28343227 14.6620199,8.5500757 15.2975359,9.18566733 C15.9330518,9.82118327 16.1997709,10.5848924 15.8932351,10.8914661 Z" id="Shape"></path>
                            <path d="M6.39448406,2.25358167 C6.39448406,1.77744622 6.00854183,1.39157968 5.53248207,1.39157968 L3.67695418,1.39157968 C3.20089442,1.39157968 2.81487649,1.77752191 2.81487649,2.25358167 L2.81487649,2.68834861 L6.39440837,2.68834861 L6.39440837,2.25358167 L6.39448406,2.25358167 Z" id="Path"></path>
                        </g>
                    </g>
                </g>
            </g>
        </g>
    </g>
</svg>