<?xml version="1.0" encoding="UTF-8"?>
<svg width="40px" height="40px" viewBox="0 0 40 40" version="1.1" xmlns="http://www.w3.org/2000/svg" xmlns:xlink="http://www.w3.org/1999/xlink">
    <title>488ADD29-642C-4DE0-8E5F-B34CF7D073E5</title>
    <defs>
        <rect id="path-1" x="0" y="0" width="224" height="184" rx="8"></rect>
        <filter x="-8.0%" y="-10.3%" width="118.8%" height="122.8%" filterUnits="objectBoundingBox" id="filter-2">
            <feOffset dx="3" dy="2" in="SourceAlpha" result="shadowOffsetOuter1"></feOffset>
            <feGaussianBlur stdDeviation="6.5" in="shadowOffsetOuter1" result="shadowBlurOuter1"></feGaussianBlur>
            <feColorMatrix values="0 0 0 0 0   0 0 0 0 0   0 0 0 0 0  0 0 0 0.0411812309 0" type="matrix" in="shadowBlurOuter1"></feColorMatrix>
        </filter>
    </defs>
    <g id="Page-1" stroke="none" stroke-width="1" fill="none" fill-rule="evenodd">
        <g id="Academy---Home-1" transform="translate(-1000.000000, -1620.000000)">
            <g id="Group-13" transform="translate(240.000000, 1308.000000)">
                <g id="Group-8" transform="translate(744.000000, 296.000000)">
                    <g id="Rectangle">
                        <use fill="black" fill-opacity="1" filter="url(#filter-2)" xlink:href="#path-1"></use>
                        <use fill="#F5FCFF" fill-rule="evenodd" xlink:href="#path-1"></use>
                    </g>
                    <g id="icon/category/technology" transform="translate(16.000000, 16.000000)">
                        <rect id="Rectangle" fill="#6292B0" x="0" y="0" width="40" height="40" rx="8"></rect>
                        <g id="001-cpu" transform="translate(8.000000, 8.000000)" fill="#FFFFFF" fill-rule="nonzero">
                            <path d="M13.2324219,11.0351562 C13.2324219,11.3126953 13.0757812,11.5658691 12.8275879,11.690332 L9.89790039,13.1551758 C9.53232422,13.3366699 9.09521484,13.1866699 8.91513672,12.8275879 C8.73417969,12.4656738 8.88081055,12.0257812 9.24272461,11.8448242 L11.7675781,10.5824219 L11.7675781,7.37304688 L10.3027344,7.37304688 L10.3027344,9.5703125 C10.3027344,9.97514648 9.97514648,10.3027344 9.5703125,10.3027344 C9.16547852,10.3027344 8.83789062,9.97514648 8.83789062,9.5703125 L8.83789062,7.37304688 L7.37304688,7.37304688 L7.37304688,14.6972656 L9.5703125,14.6972656 C9.97514648,14.6972656 10.3027344,15.0248535 10.3027344,15.4296875 C10.3027344,15.8345215 9.97514648,16.1621094 9.5703125,16.1621094 L7.37304688,16.1621094 L7.37304688,17.6269531 L11.7675781,17.6269531 L11.7675781,13.9648437 C11.7675781,13.6873047 11.9242187,13.4341309 12.1724121,13.309668 L15.1020996,11.8448242 C15.4647461,11.6645996 15.9031738,11.810498 16.0848633,12.1724121 C16.2658203,12.5343262 16.1191895,12.9742187 15.7572754,13.1551758 L13.2324219,14.4175781 L13.2324219,17.6269531 L14.6972656,17.6269531 L14.6972656,15.4296875 C14.6972656,15.0248535 15.0248535,14.6972656 15.4296875,14.6972656 C15.8345215,14.6972656 16.1621094,15.0248535 16.1621094,15.4296875 L16.1621094,17.6269531 L17.6269531,17.6269531 L17.6269531,10.3027344 L15.4296875,10.3027344 C15.0248535,10.3027344 14.6972656,9.97514648 14.6972656,9.5703125 C14.6972656,9.16547852 15.0248535,8.83789062 15.4296875,8.83789062 L17.6269531,8.83789062 L17.6269531,7.37304688 L13.2324219,7.37304688 L13.2324219,11.0351562 Z" id="Path"></path>
                            <path d="M24.2675781,7.37304688 C24.6724121,7.37304688 25,7.04545898 25,6.640625 C25,6.23579102 24.6724121,5.90820313 24.2675781,5.90820313 L22.0214844,5.90820313 L22.0214844,3.7109375 C22.0214844,3.30610352 21.6938965,2.97851563 21.2890625,2.97851563 L19.0917969,2.97851563 L19.0917969,0.732421875 C19.0917969,0.327587891 18.764209,0 18.359375,0 C17.954541,0 17.6269531,0.327587891 17.6269531,0.732421875 L17.6269531,2.97851563 L16.1621094,2.97851563 L16.1621094,0.732421875 C16.1621094,0.327587891 15.8345215,0 15.4296875,0 C15.0248535,0 14.6972656,0.327587891 14.6972656,0.732421875 L14.6972656,2.97851563 L13.2324219,2.97851563 L13.2324219,0.732421875 C13.2324219,0.327587891 12.904834,0 12.5,0 C12.095166,0 11.7675781,0.327587891 11.7675781,0.732421875 L11.7675781,2.97851563 L10.3027344,2.97851563 L10.3027344,0.732421875 C10.3027344,0.327587891 9.97514648,0 9.5703125,0 C9.16547852,0 8.83789063,0.327587891 8.83789063,0.732421875 L8.83789063,2.97851563 L7.37304688,2.97851563 L7.37304688,0.732421875 C7.37304688,0.327587891 7.04545898,0 6.640625,0 C6.23579102,0 5.90820313,0.327587891 5.90820313,0.732421875 L5.90820313,2.97851563 L3.7109375,2.97851563 C3.30610352,2.97851563 2.97851563,3.30610352 2.97851563,3.7109375 L2.97851563,5.90820313 L0.732421875,5.90820313 C0.327587891,5.90820313 0,6.23579102 0,6.640625 C0,7.04545898 0.327587891,7.37304688 0.732421875,7.37304688 L2.97851563,7.37304688 L2.97851563,8.83789063 L0.732421875,8.83789063 C0.327587891,8.83789063 0,9.16547852 0,9.5703125 C0,9.97514648 0.327587891,10.3027344 0.732421875,10.3027344 L2.97851563,10.3027344 L2.97851563,11.7675781 L0.732421875,11.7675781 C0.327587891,11.7675781 0,12.095166 0,12.5 C0,12.904834 0.327587891,13.2324219 0.732421875,13.2324219 L2.97851563,13.2324219 L2.97851563,14.6972656 L0.732421875,14.6972656 C0.327587891,14.6972656 0,15.0248535 0,15.4296875 C0,15.8345215 0.327587891,16.1621094 0.732421875,16.1621094 L2.97851563,16.1621094 L2.97851563,17.6269531 L0.732421875,17.6269531 C0.327587891,17.6269531 0,17.954541 0,18.359375 C0,18.764209 0.327587891,19.0917969 0.732421875,19.0917969 L2.97851563,19.0917969 L2.97851563,21.2890625 C2.97851563,21.6938965 3.30610352,22.0214844 3.7109375,22.0214844 L5.90820313,22.0214844 L5.90820313,24.2675781 C5.90820313,24.6724121 6.23579102,25 6.640625,25 C7.04545898,25 7.37304688,24.6724121 7.37304688,24.2675781 L7.37304688,22.0214844 L8.83789063,22.0214844 L8.83789063,24.2675781 C8.83789063,24.6724121 9.16547852,25 9.5703125,25 C9.97514648,25 10.3027344,24.6724121 10.3027344,24.2675781 L10.3027344,22.0214844 L11.7675781,22.0214844 L11.7675781,24.2675781 C11.7675781,24.6724121 12.095166,25 12.5,25 C12.904834,25 13.2324219,24.6724121 13.2324219,24.2675781 L13.2324219,22.0214844 L14.6972656,22.0214844 L14.6972656,24.2675781 C14.6972656,24.6724121 15.0248535,25 15.4296875,25 C15.8345215,25 16.1621094,24.6724121 16.1621094,24.2675781 L16.1621094,22.0214844 L17.6269531,22.0214844 L17.6269531,24.2675781 C17.6269531,24.6724121 17.954541,25 18.359375,25 C18.764209,25 19.0917969,24.6724121 19.0917969,24.2675781 L19.0917969,22.0214844 L21.2890625,22.0214844 C21.6938965,22.0214844 22.0214844,21.6938965 22.0214844,21.2890625 L22.0214844,19.0917969 L24.2675781,19.0917969 C24.6724121,19.0917969 25,18.764209 25,18.359375 C25,17.954541 24.6724121,17.6269531 24.2675781,17.6269531 L22.0214844,17.6269531 L22.0214844,16.1621094 L24.2675781,16.1621094 C24.6724121,16.1621094 25,15.8345215 25,15.4296875 C25,15.0248535 24.6724121,14.6972656 24.2675781,14.6972656 L22.0214844,14.6972656 L22.0214844,13.2324219 L24.2675781,13.2324219 C24.6724121,13.2324219 25,12.904834 25,12.5 C25,12.095166 24.6724121,11.7675781 24.2675781,11.7675781 L22.0214844,11.7675781 L22.0214844,10.3027344 L24.2675781,10.3027344 C24.6724121,10.3027344 25,9.97514648 25,9.5703125 C25,9.16547852 24.6724121,8.83789063 24.2675781,8.83789063 L22.0214844,8.83789063 L22.0214844,7.37304688 L24.2675781,7.37304688 Z M19.0917969,18.359375 C19.0917969,18.764209 18.764209,19.0917969 18.359375,19.0917969 L6.640625,19.0917969 C6.23579102,19.0917969 5.90820313,18.764209 5.90820313,18.359375 L5.90820313,6.640625 C5.90820313,6.23579102 6.23579102,5.90820313 6.640625,5.90820313 L18.359375,5.90820313 C18.764209,5.90820313 19.0917969,6.23579102 19.0917969,6.640625 L19.0917969,18.359375 Z" id="Shape"></path>
                        </g>
                    </g>
                </g>
            </g>
        </g>
    </g>
</svg>