<?xml version="1.0" encoding="UTF-8"?>
<svg width="19px" height="15px" viewBox="0 0 19 15" version="1.1" xmlns="http://www.w3.org/2000/svg" xmlns:xlink="http://www.w3.org/1999/xlink">
    <title>DC182E75-8942-4A21-BCC9-9B0CD4AEF739</title>
    <g id="Page-1" stroke="none" stroke-width="1" fill="none" fill-rule="evenodd">
        <g id="Academy---Home-1" transform="translate(-1169.000000, -2352.000000)" fill="#253946" fill-rule="nonzero">
            <g id="Group-14" transform="translate(1048.000000, 2312.000000)">
                <g id="Path" transform="translate(121.000000, 40.000000)">
                    <path d="M5.97720208,15 C13.1452687,15 17.0669875,9.22847646 17.0669875,4.22492662 C17.0669875,4.06266325 17.0632667,3.8968231 17.055825,3.73455973 C17.8187542,3.1985022 18.4771042,2.5345262 19,1.77380756 C18.2894792,2.0809503 17.5351396,2.28153535 16.7626708,2.36872451 C17.5760292,1.89504164 18.1850187,1.15088393 18.4767479,0.274219476 C17.7116021,0.714815082 16.87485,1.02561154 16.0023146,1.19329778 C15.4144229,0.586358189 14.637125,0.184491951 13.7905958,0.0498314358 C12.9440667,-0.0848290795 12.07545,0.0552158565 11.3190521,0.448313181 C10.5626542,0.841414351 9.96059167,1.4656687 9.60596458,2.22457587 C9.2513375,2.98347151 9.16389792,3.83474842 9.35714375,4.64679598 C7.8078125,4.57122179 6.29212708,4.18019747 4.90833333,3.49899133 C3.52451979,2.81774673 2.30350854,1.86160054 1.32443458,0.692473582 C0.826816667,1.5260819 0.674543542,2.512527 0.898565417,3.45126229 C1.12258729,4.39003603 1.70609312,5.21073712 2.53048729,5.74648698 C1.91158208,5.72741075 1.30623021,5.56549353 0.764453125,5.27415791 L0.764453125,5.32104083 C0.763898958,6.19585535 1.0751625,7.04382469 1.64532875,7.72087713 C2.215495,8.39792957 3.00938229,8.86222047 3.89203125,9.03482961 C3.31871021,9.18724718 2.71698417,9.20947715 2.13341896,9.09975034 C2.38248521,9.85206929 2.86708021,10.510084 3.51956792,10.9819515 C4.17204375,11.4538191 4.95987083,11.7160019 5.77311042,11.7318475 C4.39248333,12.7855786 2.68705521,13.3570964 0.931447292,13.3544042 C0.620100625,13.3539427 0.309065875,13.3354049 0,13.2988677 C1.78351021,14.4106352 3.85821125,15.0010754 5.97720208,15 Z"></path>
                </g>
            </g>
        </g>
    </g>
</svg>